G04 #@! TF.GenerationSoftware,KiCad,Pcbnew,(5.1.6)-1*
G04 #@! TF.CreationDate,2020-10-04T22:42:36-04:00*
G04 #@! TF.ProjectId,keyboard,6b657962-6f61-4726-942e-6b696361645f,rev?*
G04 #@! TF.SameCoordinates,Original*
G04 #@! TF.FileFunction,Soldermask,Top*
G04 #@! TF.FilePolarity,Negative*
%FSLAX46Y46*%
G04 Gerber Fmt 4.6, Leading zero omitted, Abs format (unit mm)*
G04 Created by KiCad (PCBNEW (5.1.6)-1) date 2020-10-04 22:42:36*
%MOMM*%
%LPD*%
G01*
G04 APERTURE LIST*
%ADD10C,0.100000*%
%ADD11C,0.150000*%
%ADD12C,0.300000*%
%ADD13C,0.400000*%
%ADD14C,1.930400*%
%ADD15C,3.352400*%
%ADD16C,1.750000*%
%ADD17C,3.987800*%
%ADD18C,1.700000*%
%ADD19C,2.200000*%
%ADD20R,2.000000X2.000000*%
%ADD21C,2.000000*%
%ADD22R,3.200000X2.000000*%
%ADD23C,3.048000*%
%ADD24C,1.600000*%
%ADD25R,1.600000X1.600000*%
%ADD26R,1.200000X1.200000*%
G04 APERTURE END LIST*
D10*
D11*
X474004400Y-375989000D02*
X474004400Y-407989000D01*
X582004400Y-407989000D01*
X582004400Y-375989000D01*
X474004400Y-375989000D01*
D10*
D11*
X10000000Y-10000000D02*
X10000000Y-409989000D01*
X584004400Y-409989000D01*
X584004400Y-10000000D01*
X10000000Y-10000000D01*
D10*
D11*
X12000000Y-12000000D02*
X12000000Y-407989000D01*
X582004400Y-407989000D01*
X582004400Y-12000000D01*
X12000000Y-12000000D01*
D10*
D11*
X60000000Y-12000000D02*
X60000000Y-10000000D01*
D10*
D11*
X110000000Y-12000000D02*
X110000000Y-10000000D01*
D10*
D11*
X160000000Y-12000000D02*
X160000000Y-10000000D01*
D10*
D11*
X210000000Y-12000000D02*
X210000000Y-10000000D01*
D10*
D11*
X260000000Y-12000000D02*
X260000000Y-10000000D01*
D10*
D11*
X310000000Y-12000000D02*
X310000000Y-10000000D01*
D10*
D11*
X360000000Y-12000000D02*
X360000000Y-10000000D01*
D10*
D11*
X410000000Y-12000000D02*
X410000000Y-10000000D01*
D10*
D11*
X460000000Y-12000000D02*
X460000000Y-10000000D01*
D10*
D11*
X510000000Y-12000000D02*
X510000000Y-10000000D01*
D10*
D11*
X560000000Y-12000000D02*
X560000000Y-10000000D01*
D10*
D11*
X36065476Y-11588095D02*
X35322619Y-11588095D01*
X35694047Y-11588095D02*
X35694047Y-10288095D01*
X35570238Y-10473809D01*
X35446428Y-10597619D01*
X35322619Y-10659523D01*
D10*
D11*
X85322619Y-10411904D02*
X85384523Y-10350000D01*
X85508333Y-10288095D01*
X85817857Y-10288095D01*
X85941666Y-10350000D01*
X86003571Y-10411904D01*
X86065476Y-10535714D01*
X86065476Y-10659523D01*
X86003571Y-10845238D01*
X85260714Y-11588095D01*
X86065476Y-11588095D01*
D10*
D11*
X135260714Y-10288095D02*
X136065476Y-10288095D01*
X135632142Y-10783333D01*
X135817857Y-10783333D01*
X135941666Y-10845238D01*
X136003571Y-10907142D01*
X136065476Y-11030952D01*
X136065476Y-11340476D01*
X136003571Y-11464285D01*
X135941666Y-11526190D01*
X135817857Y-11588095D01*
X135446428Y-11588095D01*
X135322619Y-11526190D01*
X135260714Y-11464285D01*
D10*
D11*
X185941666Y-10721428D02*
X185941666Y-11588095D01*
X185632142Y-10226190D02*
X185322619Y-11154761D01*
X186127380Y-11154761D01*
D10*
D11*
X236003571Y-10288095D02*
X235384523Y-10288095D01*
X235322619Y-10907142D01*
X235384523Y-10845238D01*
X235508333Y-10783333D01*
X235817857Y-10783333D01*
X235941666Y-10845238D01*
X236003571Y-10907142D01*
X236065476Y-11030952D01*
X236065476Y-11340476D01*
X236003571Y-11464285D01*
X235941666Y-11526190D01*
X235817857Y-11588095D01*
X235508333Y-11588095D01*
X235384523Y-11526190D01*
X235322619Y-11464285D01*
D10*
D11*
X285941666Y-10288095D02*
X285694047Y-10288095D01*
X285570238Y-10350000D01*
X285508333Y-10411904D01*
X285384523Y-10597619D01*
X285322619Y-10845238D01*
X285322619Y-11340476D01*
X285384523Y-11464285D01*
X285446428Y-11526190D01*
X285570238Y-11588095D01*
X285817857Y-11588095D01*
X285941666Y-11526190D01*
X286003571Y-11464285D01*
X286065476Y-11340476D01*
X286065476Y-11030952D01*
X286003571Y-10907142D01*
X285941666Y-10845238D01*
X285817857Y-10783333D01*
X285570238Y-10783333D01*
X285446428Y-10845238D01*
X285384523Y-10907142D01*
X285322619Y-11030952D01*
D10*
D11*
X335260714Y-10288095D02*
X336127380Y-10288095D01*
X335570238Y-11588095D01*
D10*
D11*
X385570238Y-10845238D02*
X385446428Y-10783333D01*
X385384523Y-10721428D01*
X385322619Y-10597619D01*
X385322619Y-10535714D01*
X385384523Y-10411904D01*
X385446428Y-10350000D01*
X385570238Y-10288095D01*
X385817857Y-10288095D01*
X385941666Y-10350000D01*
X386003571Y-10411904D01*
X386065476Y-10535714D01*
X386065476Y-10597619D01*
X386003571Y-10721428D01*
X385941666Y-10783333D01*
X385817857Y-10845238D01*
X385570238Y-10845238D01*
X385446428Y-10907142D01*
X385384523Y-10969047D01*
X385322619Y-11092857D01*
X385322619Y-11340476D01*
X385384523Y-11464285D01*
X385446428Y-11526190D01*
X385570238Y-11588095D01*
X385817857Y-11588095D01*
X385941666Y-11526190D01*
X386003571Y-11464285D01*
X386065476Y-11340476D01*
X386065476Y-11092857D01*
X386003571Y-10969047D01*
X385941666Y-10907142D01*
X385817857Y-10845238D01*
D10*
D11*
X435446428Y-11588095D02*
X435694047Y-11588095D01*
X435817857Y-11526190D01*
X435879761Y-11464285D01*
X436003571Y-11278571D01*
X436065476Y-11030952D01*
X436065476Y-10535714D01*
X436003571Y-10411904D01*
X435941666Y-10350000D01*
X435817857Y-10288095D01*
X435570238Y-10288095D01*
X435446428Y-10350000D01*
X435384523Y-10411904D01*
X435322619Y-10535714D01*
X435322619Y-10845238D01*
X435384523Y-10969047D01*
X435446428Y-11030952D01*
X435570238Y-11092857D01*
X435817857Y-11092857D01*
X435941666Y-11030952D01*
X436003571Y-10969047D01*
X436065476Y-10845238D01*
D10*
D11*
X486065476Y-11588095D02*
X485322619Y-11588095D01*
X485694047Y-11588095D02*
X485694047Y-10288095D01*
X485570238Y-10473809D01*
X485446428Y-10597619D01*
X485322619Y-10659523D01*
X486870238Y-10288095D02*
X486994047Y-10288095D01*
X487117857Y-10350000D01*
X487179761Y-10411904D01*
X487241666Y-10535714D01*
X487303571Y-10783333D01*
X487303571Y-11092857D01*
X487241666Y-11340476D01*
X487179761Y-11464285D01*
X487117857Y-11526190D01*
X486994047Y-11588095D01*
X486870238Y-11588095D01*
X486746428Y-11526190D01*
X486684523Y-11464285D01*
X486622619Y-11340476D01*
X486560714Y-11092857D01*
X486560714Y-10783333D01*
X486622619Y-10535714D01*
X486684523Y-10411904D01*
X486746428Y-10350000D01*
X486870238Y-10288095D01*
D10*
D11*
X536065476Y-11588095D02*
X535322619Y-11588095D01*
X535694047Y-11588095D02*
X535694047Y-10288095D01*
X535570238Y-10473809D01*
X535446428Y-10597619D01*
X535322619Y-10659523D01*
X537303571Y-11588095D02*
X536560714Y-11588095D01*
X536932142Y-11588095D02*
X536932142Y-10288095D01*
X536808333Y-10473809D01*
X536684523Y-10597619D01*
X536560714Y-10659523D01*
D10*
D11*
X60000000Y-407989000D02*
X60000000Y-409989000D01*
D10*
D11*
X110000000Y-407989000D02*
X110000000Y-409989000D01*
D10*
D11*
X160000000Y-407989000D02*
X160000000Y-409989000D01*
D10*
D11*
X210000000Y-407989000D02*
X210000000Y-409989000D01*
D10*
D11*
X260000000Y-407989000D02*
X260000000Y-409989000D01*
D10*
D11*
X310000000Y-407989000D02*
X310000000Y-409989000D01*
D10*
D11*
X360000000Y-407989000D02*
X360000000Y-409989000D01*
D10*
D11*
X410000000Y-407989000D02*
X410000000Y-409989000D01*
D10*
D11*
X460000000Y-407989000D02*
X460000000Y-409989000D01*
D10*
D11*
X510000000Y-407989000D02*
X510000000Y-409989000D01*
D10*
D11*
X560000000Y-407989000D02*
X560000000Y-409989000D01*
D10*
D11*
X36065476Y-409577095D02*
X35322619Y-409577095D01*
X35694047Y-409577095D02*
X35694047Y-408277095D01*
X35570238Y-408462809D01*
X35446428Y-408586619D01*
X35322619Y-408648523D01*
D10*
D11*
X85322619Y-408400904D02*
X85384523Y-408339000D01*
X85508333Y-408277095D01*
X85817857Y-408277095D01*
X85941666Y-408339000D01*
X86003571Y-408400904D01*
X86065476Y-408524714D01*
X86065476Y-408648523D01*
X86003571Y-408834238D01*
X85260714Y-409577095D01*
X86065476Y-409577095D01*
D10*
D11*
X135260714Y-408277095D02*
X136065476Y-408277095D01*
X135632142Y-408772333D01*
X135817857Y-408772333D01*
X135941666Y-408834238D01*
X136003571Y-408896142D01*
X136065476Y-409019952D01*
X136065476Y-409329476D01*
X136003571Y-409453285D01*
X135941666Y-409515190D01*
X135817857Y-409577095D01*
X135446428Y-409577095D01*
X135322619Y-409515190D01*
X135260714Y-409453285D01*
D10*
D11*
X185941666Y-408710428D02*
X185941666Y-409577095D01*
X185632142Y-408215190D02*
X185322619Y-409143761D01*
X186127380Y-409143761D01*
D10*
D11*
X236003571Y-408277095D02*
X235384523Y-408277095D01*
X235322619Y-408896142D01*
X235384523Y-408834238D01*
X235508333Y-408772333D01*
X235817857Y-408772333D01*
X235941666Y-408834238D01*
X236003571Y-408896142D01*
X236065476Y-409019952D01*
X236065476Y-409329476D01*
X236003571Y-409453285D01*
X235941666Y-409515190D01*
X235817857Y-409577095D01*
X235508333Y-409577095D01*
X235384523Y-409515190D01*
X235322619Y-409453285D01*
D10*
D11*
X285941666Y-408277095D02*
X285694047Y-408277095D01*
X285570238Y-408339000D01*
X285508333Y-408400904D01*
X285384523Y-408586619D01*
X285322619Y-408834238D01*
X285322619Y-409329476D01*
X285384523Y-409453285D01*
X285446428Y-409515190D01*
X285570238Y-409577095D01*
X285817857Y-409577095D01*
X285941666Y-409515190D01*
X286003571Y-409453285D01*
X286065476Y-409329476D01*
X286065476Y-409019952D01*
X286003571Y-408896142D01*
X285941666Y-408834238D01*
X285817857Y-408772333D01*
X285570238Y-408772333D01*
X285446428Y-408834238D01*
X285384523Y-408896142D01*
X285322619Y-409019952D01*
D10*
D11*
X335260714Y-408277095D02*
X336127380Y-408277095D01*
X335570238Y-409577095D01*
D10*
D11*
X385570238Y-408834238D02*
X385446428Y-408772333D01*
X385384523Y-408710428D01*
X385322619Y-408586619D01*
X385322619Y-408524714D01*
X385384523Y-408400904D01*
X385446428Y-408339000D01*
X385570238Y-408277095D01*
X385817857Y-408277095D01*
X385941666Y-408339000D01*
X386003571Y-408400904D01*
X386065476Y-408524714D01*
X386065476Y-408586619D01*
X386003571Y-408710428D01*
X385941666Y-408772333D01*
X385817857Y-408834238D01*
X385570238Y-408834238D01*
X385446428Y-408896142D01*
X385384523Y-408958047D01*
X385322619Y-409081857D01*
X385322619Y-409329476D01*
X385384523Y-409453285D01*
X385446428Y-409515190D01*
X385570238Y-409577095D01*
X385817857Y-409577095D01*
X385941666Y-409515190D01*
X386003571Y-409453285D01*
X386065476Y-409329476D01*
X386065476Y-409081857D01*
X386003571Y-408958047D01*
X385941666Y-408896142D01*
X385817857Y-408834238D01*
D10*
D11*
X435446428Y-409577095D02*
X435694047Y-409577095D01*
X435817857Y-409515190D01*
X435879761Y-409453285D01*
X436003571Y-409267571D01*
X436065476Y-409019952D01*
X436065476Y-408524714D01*
X436003571Y-408400904D01*
X435941666Y-408339000D01*
X435817857Y-408277095D01*
X435570238Y-408277095D01*
X435446428Y-408339000D01*
X435384523Y-408400904D01*
X435322619Y-408524714D01*
X435322619Y-408834238D01*
X435384523Y-408958047D01*
X435446428Y-409019952D01*
X435570238Y-409081857D01*
X435817857Y-409081857D01*
X435941666Y-409019952D01*
X436003571Y-408958047D01*
X436065476Y-408834238D01*
D10*
D11*
X486065476Y-409577095D02*
X485322619Y-409577095D01*
X485694047Y-409577095D02*
X485694047Y-408277095D01*
X485570238Y-408462809D01*
X485446428Y-408586619D01*
X485322619Y-408648523D01*
X486870238Y-408277095D02*
X486994047Y-408277095D01*
X487117857Y-408339000D01*
X487179761Y-408400904D01*
X487241666Y-408524714D01*
X487303571Y-408772333D01*
X487303571Y-409081857D01*
X487241666Y-409329476D01*
X487179761Y-409453285D01*
X487117857Y-409515190D01*
X486994047Y-409577095D01*
X486870238Y-409577095D01*
X486746428Y-409515190D01*
X486684523Y-409453285D01*
X486622619Y-409329476D01*
X486560714Y-409081857D01*
X486560714Y-408772333D01*
X486622619Y-408524714D01*
X486684523Y-408400904D01*
X486746428Y-408339000D01*
X486870238Y-408277095D01*
D10*
D11*
X536065476Y-409577095D02*
X535322619Y-409577095D01*
X535694047Y-409577095D02*
X535694047Y-408277095D01*
X535570238Y-408462809D01*
X535446428Y-408586619D01*
X535322619Y-408648523D01*
X537303571Y-409577095D02*
X536560714Y-409577095D01*
X536932142Y-409577095D02*
X536932142Y-408277095D01*
X536808333Y-408462809D01*
X536684523Y-408586619D01*
X536560714Y-408648523D01*
D10*
D11*
X10000000Y-60000000D02*
X12000000Y-60000000D01*
D10*
D11*
X10000000Y-110000000D02*
X12000000Y-110000000D01*
D10*
D11*
X10000000Y-160000000D02*
X12000000Y-160000000D01*
D10*
D11*
X10000000Y-210000000D02*
X12000000Y-210000000D01*
D10*
D11*
X10000000Y-260000000D02*
X12000000Y-260000000D01*
D10*
D11*
X10000000Y-310000000D02*
X12000000Y-310000000D01*
D10*
D11*
X10000000Y-360000000D02*
X12000000Y-360000000D01*
D10*
D11*
X10690476Y-35216666D02*
X11309523Y-35216666D01*
X10566666Y-35588095D02*
X11000000Y-34288095D01*
X11433333Y-35588095D01*
D10*
D11*
X11092857Y-84907142D02*
X11278571Y-84969047D01*
X11340476Y-85030952D01*
X11402380Y-85154761D01*
X11402380Y-85340476D01*
X11340476Y-85464285D01*
X11278571Y-85526190D01*
X11154761Y-85588095D01*
X10659523Y-85588095D01*
X10659523Y-84288095D01*
X11092857Y-84288095D01*
X11216666Y-84350000D01*
X11278571Y-84411904D01*
X11340476Y-84535714D01*
X11340476Y-84659523D01*
X11278571Y-84783333D01*
X11216666Y-84845238D01*
X11092857Y-84907142D01*
X10659523Y-84907142D01*
D10*
D11*
X11402380Y-135464285D02*
X11340476Y-135526190D01*
X11154761Y-135588095D01*
X11030952Y-135588095D01*
X10845238Y-135526190D01*
X10721428Y-135402380D01*
X10659523Y-135278571D01*
X10597619Y-135030952D01*
X10597619Y-134845238D01*
X10659523Y-134597619D01*
X10721428Y-134473809D01*
X10845238Y-134350000D01*
X11030952Y-134288095D01*
X11154761Y-134288095D01*
X11340476Y-134350000D01*
X11402380Y-134411904D01*
D10*
D11*
X10659523Y-185588095D02*
X10659523Y-184288095D01*
X10969047Y-184288095D01*
X11154761Y-184350000D01*
X11278571Y-184473809D01*
X11340476Y-184597619D01*
X11402380Y-184845238D01*
X11402380Y-185030952D01*
X11340476Y-185278571D01*
X11278571Y-185402380D01*
X11154761Y-185526190D01*
X10969047Y-185588095D01*
X10659523Y-185588095D01*
D10*
D11*
X10721428Y-234907142D02*
X11154761Y-234907142D01*
X11340476Y-235588095D02*
X10721428Y-235588095D01*
X10721428Y-234288095D01*
X11340476Y-234288095D01*
D10*
D11*
X11185714Y-284907142D02*
X10752380Y-284907142D01*
X10752380Y-285588095D02*
X10752380Y-284288095D01*
X11371428Y-284288095D01*
D10*
D11*
X11340476Y-334350000D02*
X11216666Y-334288095D01*
X11030952Y-334288095D01*
X10845238Y-334350000D01*
X10721428Y-334473809D01*
X10659523Y-334597619D01*
X10597619Y-334845238D01*
X10597619Y-335030952D01*
X10659523Y-335278571D01*
X10721428Y-335402380D01*
X10845238Y-335526190D01*
X11030952Y-335588095D01*
X11154761Y-335588095D01*
X11340476Y-335526190D01*
X11402380Y-335464285D01*
X11402380Y-335030952D01*
X11154761Y-335030952D01*
D10*
D11*
X10628571Y-385588095D02*
X10628571Y-384288095D01*
X10628571Y-384907142D02*
X11371428Y-384907142D01*
X11371428Y-385588095D02*
X11371428Y-384288095D01*
D10*
D11*
X584004400Y-60000000D02*
X582004400Y-60000000D01*
D10*
D11*
X584004400Y-110000000D02*
X582004400Y-110000000D01*
D10*
D11*
X584004400Y-160000000D02*
X582004400Y-160000000D01*
D10*
D11*
X584004400Y-210000000D02*
X582004400Y-210000000D01*
D10*
D11*
X584004400Y-260000000D02*
X582004400Y-260000000D01*
D10*
D11*
X584004400Y-310000000D02*
X582004400Y-310000000D01*
D10*
D11*
X584004400Y-360000000D02*
X582004400Y-360000000D01*
D10*
D11*
X582694876Y-35216666D02*
X583313923Y-35216666D01*
X582571066Y-35588095D02*
X583004400Y-34288095D01*
X583437733Y-35588095D01*
D10*
D11*
X583097257Y-84907142D02*
X583282971Y-84969047D01*
X583344876Y-85030952D01*
X583406780Y-85154761D01*
X583406780Y-85340476D01*
X583344876Y-85464285D01*
X583282971Y-85526190D01*
X583159161Y-85588095D01*
X582663923Y-85588095D01*
X582663923Y-84288095D01*
X583097257Y-84288095D01*
X583221066Y-84350000D01*
X583282971Y-84411904D01*
X583344876Y-84535714D01*
X583344876Y-84659523D01*
X583282971Y-84783333D01*
X583221066Y-84845238D01*
X583097257Y-84907142D01*
X582663923Y-84907142D01*
D10*
D11*
X583406780Y-135464285D02*
X583344876Y-135526190D01*
X583159161Y-135588095D01*
X583035352Y-135588095D01*
X582849638Y-135526190D01*
X582725828Y-135402380D01*
X582663923Y-135278571D01*
X582602019Y-135030952D01*
X582602019Y-134845238D01*
X582663923Y-134597619D01*
X582725828Y-134473809D01*
X582849638Y-134350000D01*
X583035352Y-134288095D01*
X583159161Y-134288095D01*
X583344876Y-134350000D01*
X583406780Y-134411904D01*
D10*
D11*
X582663923Y-185588095D02*
X582663923Y-184288095D01*
X582973447Y-184288095D01*
X583159161Y-184350000D01*
X583282971Y-184473809D01*
X583344876Y-184597619D01*
X583406780Y-184845238D01*
X583406780Y-185030952D01*
X583344876Y-185278571D01*
X583282971Y-185402380D01*
X583159161Y-185526190D01*
X582973447Y-185588095D01*
X582663923Y-185588095D01*
D10*
D11*
X582725828Y-234907142D02*
X583159161Y-234907142D01*
X583344876Y-235588095D02*
X582725828Y-235588095D01*
X582725828Y-234288095D01*
X583344876Y-234288095D01*
D10*
D11*
X583190114Y-284907142D02*
X582756780Y-284907142D01*
X582756780Y-285588095D02*
X582756780Y-284288095D01*
X583375828Y-284288095D01*
D10*
D11*
X583344876Y-334350000D02*
X583221066Y-334288095D01*
X583035352Y-334288095D01*
X582849638Y-334350000D01*
X582725828Y-334473809D01*
X582663923Y-334597619D01*
X582602019Y-334845238D01*
X582602019Y-335030952D01*
X582663923Y-335278571D01*
X582725828Y-335402380D01*
X582849638Y-335526190D01*
X583035352Y-335588095D01*
X583159161Y-335588095D01*
X583344876Y-335526190D01*
X583406780Y-335464285D01*
X583406780Y-335030952D01*
X583159161Y-335030952D01*
D10*
D11*
X582632971Y-385588095D02*
X582632971Y-384288095D01*
X582632971Y-384907142D02*
X583375828Y-384907142D01*
X583375828Y-385588095D02*
X583375828Y-384288095D01*
D10*
D11*
X497436542Y-403767571D02*
X497436542Y-402267571D01*
X497793685Y-402267571D01*
X498007971Y-402339000D01*
X498150828Y-402481857D01*
X498222257Y-402624714D01*
X498293685Y-402910428D01*
X498293685Y-403124714D01*
X498222257Y-403410428D01*
X498150828Y-403553285D01*
X498007971Y-403696142D01*
X497793685Y-403767571D01*
X497436542Y-403767571D01*
X499579400Y-403767571D02*
X499579400Y-402981857D01*
X499507971Y-402839000D01*
X499365114Y-402767571D01*
X499079400Y-402767571D01*
X498936542Y-402839000D01*
X499579400Y-403696142D02*
X499436542Y-403767571D01*
X499079400Y-403767571D01*
X498936542Y-403696142D01*
X498865114Y-403553285D01*
X498865114Y-403410428D01*
X498936542Y-403267571D01*
X499079400Y-403196142D01*
X499436542Y-403196142D01*
X499579400Y-403124714D01*
X500079400Y-402767571D02*
X500650828Y-402767571D01*
X500293685Y-402267571D02*
X500293685Y-403553285D01*
X500365114Y-403696142D01*
X500507971Y-403767571D01*
X500650828Y-403767571D01*
X501722257Y-403696142D02*
X501579400Y-403767571D01*
X501293685Y-403767571D01*
X501150828Y-403696142D01*
X501079400Y-403553285D01*
X501079400Y-402981857D01*
X501150828Y-402839000D01*
X501293685Y-402767571D01*
X501579400Y-402767571D01*
X501722257Y-402839000D01*
X501793685Y-402981857D01*
X501793685Y-403124714D01*
X501079400Y-403267571D01*
X502436542Y-403624714D02*
X502507971Y-403696142D01*
X502436542Y-403767571D01*
X502365114Y-403696142D01*
X502436542Y-403624714D01*
X502436542Y-403767571D01*
X502436542Y-402839000D02*
X502507971Y-402910428D01*
X502436542Y-402981857D01*
X502365114Y-402910428D01*
X502436542Y-402839000D01*
X502436542Y-402981857D01*
D10*
D11*
X474004400Y-404489000D02*
X582004400Y-404489000D01*
D10*
D11*
X475436542Y-406567571D02*
X475436542Y-405067571D01*
X476293685Y-406567571D02*
X475650828Y-405710428D01*
X476293685Y-405067571D02*
X475436542Y-405924714D01*
X476936542Y-406567571D02*
X476936542Y-405567571D01*
X476936542Y-405067571D02*
X476865114Y-405139000D01*
X476936542Y-405210428D01*
X477007971Y-405139000D01*
X476936542Y-405067571D01*
X476936542Y-405210428D01*
X478507971Y-406424714D02*
X478436542Y-406496142D01*
X478222257Y-406567571D01*
X478079400Y-406567571D01*
X477865114Y-406496142D01*
X477722257Y-406353285D01*
X477650828Y-406210428D01*
X477579400Y-405924714D01*
X477579400Y-405710428D01*
X477650828Y-405424714D01*
X477722257Y-405281857D01*
X477865114Y-405139000D01*
X478079400Y-405067571D01*
X478222257Y-405067571D01*
X478436542Y-405139000D01*
X478507971Y-405210428D01*
X479793685Y-406567571D02*
X479793685Y-405781857D01*
X479722257Y-405639000D01*
X479579400Y-405567571D01*
X479293685Y-405567571D01*
X479150828Y-405639000D01*
X479793685Y-406496142D02*
X479650828Y-406567571D01*
X479293685Y-406567571D01*
X479150828Y-406496142D01*
X479079400Y-406353285D01*
X479079400Y-406210428D01*
X479150828Y-406067571D01*
X479293685Y-405996142D01*
X479650828Y-405996142D01*
X479793685Y-405924714D01*
X481150828Y-406567571D02*
X481150828Y-405067571D01*
X481150828Y-406496142D02*
X481007971Y-406567571D01*
X480722257Y-406567571D01*
X480579400Y-406496142D01*
X480507971Y-406424714D01*
X480436542Y-406281857D01*
X480436542Y-405853285D01*
X480507971Y-405710428D01*
X480579400Y-405639000D01*
X480722257Y-405567571D01*
X481007971Y-405567571D01*
X481150828Y-405639000D01*
X483007971Y-405781857D02*
X483507971Y-405781857D01*
X483722257Y-406567571D02*
X483007971Y-406567571D01*
X483007971Y-405067571D01*
X483722257Y-405067571D01*
X484365114Y-406424714D02*
X484436542Y-406496142D01*
X484365114Y-406567571D01*
X484293685Y-406496142D01*
X484365114Y-406424714D01*
X484365114Y-406567571D01*
X485079400Y-406567571D02*
X485079400Y-405067571D01*
X485436542Y-405067571D01*
X485650828Y-405139000D01*
X485793685Y-405281857D01*
X485865114Y-405424714D01*
X485936542Y-405710428D01*
X485936542Y-405924714D01*
X485865114Y-406210428D01*
X485793685Y-406353285D01*
X485650828Y-406496142D01*
X485436542Y-406567571D01*
X485079400Y-406567571D01*
X486579400Y-406424714D02*
X486650828Y-406496142D01*
X486579400Y-406567571D01*
X486507971Y-406496142D01*
X486579400Y-406424714D01*
X486579400Y-406567571D01*
X487222257Y-406139000D02*
X487936542Y-406139000D01*
X487079400Y-406567571D02*
X487579400Y-405067571D01*
X488079400Y-406567571D01*
X488579400Y-406424714D02*
X488650828Y-406496142D01*
X488579400Y-406567571D01*
X488507971Y-406496142D01*
X488579400Y-406424714D01*
X488579400Y-406567571D01*
X491579400Y-406567571D02*
X491579400Y-405067571D01*
X491722257Y-405996142D02*
X492150828Y-406567571D01*
X492150828Y-405567571D02*
X491579400Y-406139000D01*
X492793685Y-406567571D02*
X492793685Y-405567571D01*
X492793685Y-405067571D02*
X492722257Y-405139000D01*
X492793685Y-405210428D01*
X492865114Y-405139000D01*
X492793685Y-405067571D01*
X492793685Y-405210428D01*
X494150828Y-406496142D02*
X494007971Y-406567571D01*
X493722257Y-406567571D01*
X493579400Y-406496142D01*
X493507971Y-406424714D01*
X493436542Y-406281857D01*
X493436542Y-405853285D01*
X493507971Y-405710428D01*
X493579400Y-405639000D01*
X493722257Y-405567571D01*
X494007971Y-405567571D01*
X494150828Y-405639000D01*
X495436542Y-406567571D02*
X495436542Y-405781857D01*
X495365114Y-405639000D01*
X495222257Y-405567571D01*
X494936542Y-405567571D01*
X494793685Y-405639000D01*
X495436542Y-406496142D02*
X495293685Y-406567571D01*
X494936542Y-406567571D01*
X494793685Y-406496142D01*
X494722257Y-406353285D01*
X494722257Y-406210428D01*
X494793685Y-406067571D01*
X494936542Y-405996142D01*
X495293685Y-405996142D01*
X495436542Y-405924714D01*
X496793685Y-406567571D02*
X496793685Y-405067571D01*
X496793685Y-406496142D02*
X496650828Y-406567571D01*
X496365114Y-406567571D01*
X496222257Y-406496142D01*
X496150828Y-406424714D01*
X496079400Y-406281857D01*
X496079400Y-405853285D01*
X496150828Y-405710428D01*
X496222257Y-405639000D01*
X496365114Y-405567571D01*
X496650828Y-405567571D01*
X496793685Y-405639000D01*
X499079400Y-407139000D02*
X499007971Y-407067571D01*
X498865114Y-406853285D01*
X498793685Y-406710428D01*
X498722257Y-406496142D01*
X498650828Y-406139000D01*
X498650828Y-405853285D01*
X498722257Y-405496142D01*
X498793685Y-405281857D01*
X498865114Y-405139000D01*
X499007971Y-404924714D01*
X499079400Y-404853285D01*
X500365114Y-405067571D02*
X499650828Y-405067571D01*
X499579400Y-405781857D01*
X499650828Y-405710428D01*
X499793685Y-405639000D01*
X500150828Y-405639000D01*
X500293685Y-405710428D01*
X500365114Y-405781857D01*
X500436542Y-405924714D01*
X500436542Y-406281857D01*
X500365114Y-406424714D01*
X500293685Y-406496142D01*
X500150828Y-406567571D01*
X499793685Y-406567571D01*
X499650828Y-406496142D01*
X499579400Y-406424714D01*
X501079400Y-406424714D02*
X501150828Y-406496142D01*
X501079400Y-406567571D01*
X501007971Y-406496142D01*
X501079400Y-406424714D01*
X501079400Y-406567571D01*
X502579400Y-406567571D02*
X501722257Y-406567571D01*
X502150828Y-406567571D02*
X502150828Y-405067571D01*
X502007971Y-405281857D01*
X501865114Y-405424714D01*
X501722257Y-405496142D01*
X503222257Y-406424714D02*
X503293685Y-406496142D01*
X503222257Y-406567571D01*
X503150828Y-406496142D01*
X503222257Y-406424714D01*
X503222257Y-406567571D01*
X504579400Y-405067571D02*
X504293685Y-405067571D01*
X504150828Y-405139000D01*
X504079400Y-405210428D01*
X503936542Y-405424714D01*
X503865114Y-405710428D01*
X503865114Y-406281857D01*
X503936542Y-406424714D01*
X504007971Y-406496142D01*
X504150828Y-406567571D01*
X504436542Y-406567571D01*
X504579400Y-406496142D01*
X504650828Y-406424714D01*
X504722257Y-406281857D01*
X504722257Y-405924714D01*
X504650828Y-405781857D01*
X504579400Y-405710428D01*
X504436542Y-405639000D01*
X504150828Y-405639000D01*
X504007971Y-405710428D01*
X503936542Y-405781857D01*
X503865114Y-405924714D01*
X505222257Y-407139000D02*
X505293685Y-407067571D01*
X505436542Y-406853285D01*
X505507971Y-406710428D01*
X505579400Y-406496142D01*
X505650828Y-406139000D01*
X505650828Y-405853285D01*
X505579400Y-405496142D01*
X505507971Y-405281857D01*
X505436542Y-405139000D01*
X505293685Y-404924714D01*
X505222257Y-404853285D01*
X506365114Y-405996142D02*
X507507971Y-405996142D01*
X509007971Y-406567571D02*
X508150828Y-406567571D01*
X508579400Y-406567571D02*
X508579400Y-405067571D01*
X508436542Y-405281857D01*
X508293685Y-405424714D01*
X508150828Y-405496142D01*
D10*
D11*
X474004400Y-401489000D02*
X582004400Y-401489000D01*
D10*
D12*
X561413685Y-403767571D02*
X560913685Y-403053285D01*
X560556542Y-403767571D02*
X560556542Y-402267571D01*
X561127971Y-402267571D01*
X561270828Y-402339000D01*
X561342257Y-402410428D01*
X561413685Y-402553285D01*
X561413685Y-402767571D01*
X561342257Y-402910428D01*
X561270828Y-402981857D01*
X561127971Y-403053285D01*
X560556542Y-403053285D01*
X562627971Y-403696142D02*
X562485114Y-403767571D01*
X562199400Y-403767571D01*
X562056542Y-403696142D01*
X561985114Y-403553285D01*
X561985114Y-402981857D01*
X562056542Y-402839000D01*
X562199400Y-402767571D01*
X562485114Y-402767571D01*
X562627971Y-402839000D01*
X562699400Y-402981857D01*
X562699400Y-403124714D01*
X561985114Y-403267571D01*
X563199400Y-402767571D02*
X563556542Y-403767571D01*
X563913685Y-402767571D01*
X564485114Y-403624714D02*
X564556542Y-403696142D01*
X564485114Y-403767571D01*
X564413685Y-403696142D01*
X564485114Y-403624714D01*
X564485114Y-403767571D01*
X564485114Y-402839000D02*
X564556542Y-402910428D01*
X564485114Y-402981857D01*
X564413685Y-402910428D01*
X564485114Y-402839000D01*
X564485114Y-402981857D01*
D10*
D11*
X475365114Y-403696142D02*
X475579400Y-403767571D01*
X475936542Y-403767571D01*
X476079400Y-403696142D01*
X476150828Y-403624714D01*
X476222257Y-403481857D01*
X476222257Y-403339000D01*
X476150828Y-403196142D01*
X476079400Y-403124714D01*
X475936542Y-403053285D01*
X475650828Y-402981857D01*
X475507971Y-402910428D01*
X475436542Y-402839000D01*
X475365114Y-402696142D01*
X475365114Y-402553285D01*
X475436542Y-402410428D01*
X475507971Y-402339000D01*
X475650828Y-402267571D01*
X476007971Y-402267571D01*
X476222257Y-402339000D01*
X476865114Y-403767571D02*
X476865114Y-402767571D01*
X476865114Y-402267571D02*
X476793685Y-402339000D01*
X476865114Y-402410428D01*
X476936542Y-402339000D01*
X476865114Y-402267571D01*
X476865114Y-402410428D01*
X477436542Y-402767571D02*
X478222257Y-402767571D01*
X477436542Y-403767571D01*
X478222257Y-403767571D01*
X479365114Y-403696142D02*
X479222257Y-403767571D01*
X478936542Y-403767571D01*
X478793685Y-403696142D01*
X478722257Y-403553285D01*
X478722257Y-402981857D01*
X478793685Y-402839000D01*
X478936542Y-402767571D01*
X479222257Y-402767571D01*
X479365114Y-402839000D01*
X479436542Y-402981857D01*
X479436542Y-403124714D01*
X478722257Y-403267571D01*
X480079400Y-403624714D02*
X480150828Y-403696142D01*
X480079400Y-403767571D01*
X480007971Y-403696142D01*
X480079400Y-403624714D01*
X480079400Y-403767571D01*
X480079400Y-402839000D02*
X480150828Y-402910428D01*
X480079400Y-402981857D01*
X480007971Y-402910428D01*
X480079400Y-402839000D01*
X480079400Y-402981857D01*
X481865114Y-403339000D02*
X482579400Y-403339000D01*
X481722257Y-403767571D02*
X482222257Y-402267571D01*
X482722257Y-403767571D01*
X483150828Y-402410428D02*
X483222257Y-402339000D01*
X483365114Y-402267571D01*
X483722257Y-402267571D01*
X483865114Y-402339000D01*
X483936542Y-402410428D01*
X484007971Y-402553285D01*
X484007971Y-402696142D01*
X483936542Y-402910428D01*
X483079400Y-403767571D01*
X484007971Y-403767571D01*
D10*
D11*
X560436542Y-406567571D02*
X560436542Y-405067571D01*
X561793685Y-406567571D02*
X561793685Y-405067571D01*
X561793685Y-406496142D02*
X561650828Y-406567571D01*
X561365114Y-406567571D01*
X561222257Y-406496142D01*
X561150828Y-406424714D01*
X561079400Y-406281857D01*
X561079400Y-405853285D01*
X561150828Y-405710428D01*
X561222257Y-405639000D01*
X561365114Y-405567571D01*
X561650828Y-405567571D01*
X561793685Y-405639000D01*
X562507971Y-406424714D02*
X562579400Y-406496142D01*
X562507971Y-406567571D01*
X562436542Y-406496142D01*
X562507971Y-406424714D01*
X562507971Y-406567571D01*
X562507971Y-405639000D02*
X562579400Y-405710428D01*
X562507971Y-405781857D01*
X562436542Y-405710428D01*
X562507971Y-405639000D01*
X562507971Y-405781857D01*
X565150828Y-406567571D02*
X564293685Y-406567571D01*
X564722257Y-406567571D02*
X564722257Y-405067571D01*
X564579400Y-405281857D01*
X564436542Y-405424714D01*
X564293685Y-405496142D01*
X566865114Y-404996142D02*
X565579400Y-406924714D01*
X568150828Y-406567571D02*
X567293685Y-406567571D01*
X567722257Y-406567571D02*
X567722257Y-405067571D01*
X567579400Y-405281857D01*
X567436542Y-405424714D01*
X567293685Y-405496142D01*
D10*
D11*
X474004400Y-397489000D02*
X582004400Y-397489000D01*
D10*
D13*
X475716780Y-398193761D02*
X476859638Y-398193761D01*
X476038209Y-400193761D02*
X476288209Y-398193761D01*
X477276304Y-400193761D02*
X477442971Y-398860428D01*
X477526304Y-398193761D02*
X477419161Y-398289000D01*
X477502495Y-398384238D01*
X477609638Y-398289000D01*
X477526304Y-398193761D01*
X477502495Y-398384238D01*
X478109638Y-398860428D02*
X478871542Y-398860428D01*
X478478685Y-398193761D02*
X478264400Y-399908047D01*
X478335828Y-400098523D01*
X478514400Y-400193761D01*
X478704876Y-400193761D01*
X479657257Y-400193761D02*
X479478685Y-400098523D01*
X479407257Y-399908047D01*
X479621542Y-398193761D01*
X481192971Y-400098523D02*
X480990590Y-400193761D01*
X480609638Y-400193761D01*
X480431066Y-400098523D01*
X480359638Y-399908047D01*
X480454876Y-399146142D01*
X480573923Y-398955666D01*
X480776304Y-398860428D01*
X481157257Y-398860428D01*
X481335828Y-398955666D01*
X481407257Y-399146142D01*
X481383447Y-399336619D01*
X480407257Y-399527095D01*
X482157257Y-400003285D02*
X482240590Y-400098523D01*
X482133447Y-400193761D01*
X482050114Y-400098523D01*
X482157257Y-400003285D01*
X482133447Y-400193761D01*
X482288209Y-398955666D02*
X482371542Y-399050904D01*
X482264400Y-399146142D01*
X482181066Y-399050904D01*
X482288209Y-398955666D01*
X482264400Y-399146142D01*
D10*
D11*
X475936542Y-395581857D02*
X475436542Y-395581857D01*
X475436542Y-396367571D02*
X475436542Y-394867571D01*
X476150828Y-394867571D01*
X476722257Y-396367571D02*
X476722257Y-395367571D01*
X476722257Y-394867571D02*
X476650828Y-394939000D01*
X476722257Y-395010428D01*
X476793685Y-394939000D01*
X476722257Y-394867571D01*
X476722257Y-395010428D01*
X477650828Y-396367571D02*
X477507971Y-396296142D01*
X477436542Y-396153285D01*
X477436542Y-394867571D01*
X478793685Y-396296142D02*
X478650828Y-396367571D01*
X478365114Y-396367571D01*
X478222257Y-396296142D01*
X478150828Y-396153285D01*
X478150828Y-395581857D01*
X478222257Y-395439000D01*
X478365114Y-395367571D01*
X478650828Y-395367571D01*
X478793685Y-395439000D01*
X478865114Y-395581857D01*
X478865114Y-395724714D01*
X478150828Y-395867571D01*
X479507971Y-396224714D02*
X479579400Y-396296142D01*
X479507971Y-396367571D01*
X479436542Y-396296142D01*
X479507971Y-396224714D01*
X479507971Y-396367571D01*
X479507971Y-395439000D02*
X479579400Y-395510428D01*
X479507971Y-395581857D01*
X479436542Y-395510428D01*
X479507971Y-395439000D01*
X479507971Y-395581857D01*
X481365114Y-396367571D02*
X481365114Y-394867571D01*
X481507971Y-395796142D02*
X481936542Y-396367571D01*
X481936542Y-395367571D02*
X481365114Y-395939000D01*
X483150828Y-396296142D02*
X483007971Y-396367571D01*
X482722257Y-396367571D01*
X482579400Y-396296142D01*
X482507971Y-396153285D01*
X482507971Y-395581857D01*
X482579400Y-395439000D01*
X482722257Y-395367571D01*
X483007971Y-395367571D01*
X483150828Y-395439000D01*
X483222257Y-395581857D01*
X483222257Y-395724714D01*
X482507971Y-395867571D01*
X483722257Y-395367571D02*
X484079400Y-396367571D01*
X484436542Y-395367571D02*
X484079400Y-396367571D01*
X483936542Y-396724714D01*
X483865114Y-396796142D01*
X483722257Y-396867571D01*
X485007971Y-396367571D02*
X485007971Y-394867571D01*
X485007971Y-395439000D02*
X485150828Y-395367571D01*
X485436542Y-395367571D01*
X485579400Y-395439000D01*
X485650828Y-395510428D01*
X485722257Y-395653285D01*
X485722257Y-396081857D01*
X485650828Y-396224714D01*
X485579400Y-396296142D01*
X485436542Y-396367571D01*
X485150828Y-396367571D01*
X485007971Y-396296142D01*
X486579400Y-396367571D02*
X486436542Y-396296142D01*
X486365114Y-396224714D01*
X486293685Y-396081857D01*
X486293685Y-395653285D01*
X486365114Y-395510428D01*
X486436542Y-395439000D01*
X486579400Y-395367571D01*
X486793685Y-395367571D01*
X486936542Y-395439000D01*
X487007971Y-395510428D01*
X487079400Y-395653285D01*
X487079400Y-396081857D01*
X487007971Y-396224714D01*
X486936542Y-396296142D01*
X486793685Y-396367571D01*
X486579400Y-396367571D01*
X488365114Y-396367571D02*
X488365114Y-395581857D01*
X488293685Y-395439000D01*
X488150828Y-395367571D01*
X487865114Y-395367571D01*
X487722257Y-395439000D01*
X488365114Y-396296142D02*
X488222257Y-396367571D01*
X487865114Y-396367571D01*
X487722257Y-396296142D01*
X487650828Y-396153285D01*
X487650828Y-396010428D01*
X487722257Y-395867571D01*
X487865114Y-395796142D01*
X488222257Y-395796142D01*
X488365114Y-395724714D01*
X489079400Y-396367571D02*
X489079400Y-395367571D01*
X489079400Y-395653285D02*
X489150828Y-395510428D01*
X489222257Y-395439000D01*
X489365114Y-395367571D01*
X489507971Y-395367571D01*
X490650828Y-396367571D02*
X490650828Y-394867571D01*
X490650828Y-396296142D02*
X490507971Y-396367571D01*
X490222257Y-396367571D01*
X490079400Y-396296142D01*
X490007971Y-396224714D01*
X489936542Y-396081857D01*
X489936542Y-395653285D01*
X490007971Y-395510428D01*
X490079400Y-395439000D01*
X490222257Y-395367571D01*
X490507971Y-395367571D01*
X490650828Y-395439000D01*
X491365114Y-396224714D02*
X491436542Y-396296142D01*
X491365114Y-396367571D01*
X491293685Y-396296142D01*
X491365114Y-396224714D01*
X491365114Y-396367571D01*
X492079400Y-396367571D02*
X492079400Y-394867571D01*
X492222257Y-395796142D02*
X492650828Y-396367571D01*
X492650828Y-395367571D02*
X492079400Y-395939000D01*
X493293685Y-396367571D02*
X493293685Y-395367571D01*
X493293685Y-394867571D02*
X493222257Y-394939000D01*
X493293685Y-395010428D01*
X493365114Y-394939000D01*
X493293685Y-394867571D01*
X493293685Y-395010428D01*
X494650828Y-396296142D02*
X494507971Y-396367571D01*
X494222257Y-396367571D01*
X494079400Y-396296142D01*
X494007971Y-396224714D01*
X493936542Y-396081857D01*
X493936542Y-395653285D01*
X494007971Y-395510428D01*
X494079400Y-395439000D01*
X494222257Y-395367571D01*
X494507971Y-395367571D01*
X494650828Y-395439000D01*
X495936542Y-396367571D02*
X495936542Y-395581857D01*
X495865114Y-395439000D01*
X495722257Y-395367571D01*
X495436542Y-395367571D01*
X495293685Y-395439000D01*
X495936542Y-396296142D02*
X495793685Y-396367571D01*
X495436542Y-396367571D01*
X495293685Y-396296142D01*
X495222257Y-396153285D01*
X495222257Y-396010428D01*
X495293685Y-395867571D01*
X495436542Y-395796142D01*
X495793685Y-395796142D01*
X495936542Y-395724714D01*
X497293685Y-396367571D02*
X497293685Y-394867571D01*
X497293685Y-396296142D02*
X497150828Y-396367571D01*
X496865114Y-396367571D01*
X496722257Y-396296142D01*
X496650828Y-396224714D01*
X496579400Y-396081857D01*
X496579400Y-395653285D01*
X496650828Y-395510428D01*
X496722257Y-395439000D01*
X496865114Y-395367571D01*
X497150828Y-395367571D01*
X497293685Y-395439000D01*
X497650828Y-396510428D02*
X498793685Y-396510428D01*
X499150828Y-395367571D02*
X499150828Y-396867571D01*
X499150828Y-395439000D02*
X499293685Y-395367571D01*
X499579400Y-395367571D01*
X499722257Y-395439000D01*
X499793685Y-395510428D01*
X499865114Y-395653285D01*
X499865114Y-396081857D01*
X499793685Y-396224714D01*
X499722257Y-396296142D01*
X499579400Y-396367571D01*
X499293685Y-396367571D01*
X499150828Y-396296142D01*
X501150828Y-396296142D02*
X501007971Y-396367571D01*
X500722257Y-396367571D01*
X500579400Y-396296142D01*
X500507971Y-396224714D01*
X500436542Y-396081857D01*
X500436542Y-395653285D01*
X500507971Y-395510428D01*
X500579400Y-395439000D01*
X500722257Y-395367571D01*
X501007971Y-395367571D01*
X501150828Y-395439000D01*
X501793685Y-396367571D02*
X501793685Y-394867571D01*
X501793685Y-395439000D02*
X501936542Y-395367571D01*
X502222257Y-395367571D01*
X502365114Y-395439000D01*
X502436542Y-395510428D01*
X502507971Y-395653285D01*
X502507971Y-396081857D01*
X502436542Y-396224714D01*
X502365114Y-396296142D01*
X502222257Y-396367571D01*
X501936542Y-396367571D01*
X501793685Y-396296142D01*
D10*
D11*
X474004400Y-391489000D02*
X582004400Y-391489000D01*
D10*
D11*
X475365114Y-393596142D02*
X475579400Y-393667571D01*
X475936542Y-393667571D01*
X476079400Y-393596142D01*
X476150828Y-393524714D01*
X476222257Y-393381857D01*
X476222257Y-393239000D01*
X476150828Y-393096142D01*
X476079400Y-393024714D01*
X475936542Y-392953285D01*
X475650828Y-392881857D01*
X475507971Y-392810428D01*
X475436542Y-392739000D01*
X475365114Y-392596142D01*
X475365114Y-392453285D01*
X475436542Y-392310428D01*
X475507971Y-392239000D01*
X475650828Y-392167571D01*
X476007971Y-392167571D01*
X476222257Y-392239000D01*
X476865114Y-393667571D02*
X476865114Y-392167571D01*
X477507971Y-393667571D02*
X477507971Y-392881857D01*
X477436542Y-392739000D01*
X477293685Y-392667571D01*
X477079400Y-392667571D01*
X476936542Y-392739000D01*
X476865114Y-392810428D01*
X478793685Y-393596142D02*
X478650828Y-393667571D01*
X478365114Y-393667571D01*
X478222257Y-393596142D01*
X478150828Y-393453285D01*
X478150828Y-392881857D01*
X478222257Y-392739000D01*
X478365114Y-392667571D01*
X478650828Y-392667571D01*
X478793685Y-392739000D01*
X478865114Y-392881857D01*
X478865114Y-393024714D01*
X478150828Y-393167571D01*
X480079400Y-393596142D02*
X479936542Y-393667571D01*
X479650828Y-393667571D01*
X479507971Y-393596142D01*
X479436542Y-393453285D01*
X479436542Y-392881857D01*
X479507971Y-392739000D01*
X479650828Y-392667571D01*
X479936542Y-392667571D01*
X480079400Y-392739000D01*
X480150828Y-392881857D01*
X480150828Y-393024714D01*
X479436542Y-393167571D01*
X480579400Y-392667571D02*
X481150828Y-392667571D01*
X480793685Y-392167571D02*
X480793685Y-393453285D01*
X480865114Y-393596142D01*
X481007971Y-393667571D01*
X481150828Y-393667571D01*
X481650828Y-393524714D02*
X481722257Y-393596142D01*
X481650828Y-393667571D01*
X481579400Y-393596142D01*
X481650828Y-393524714D01*
X481650828Y-393667571D01*
X481650828Y-392739000D02*
X481722257Y-392810428D01*
X481650828Y-392881857D01*
X481579400Y-392810428D01*
X481650828Y-392739000D01*
X481650828Y-392881857D01*
D10*
D11*
X494004400Y-401489000D02*
X494004400Y-404489000D01*
D10*
D11*
X558004400Y-401489000D02*
X558004400Y-407989000D01*
D14*
X146018250Y-171450000D03*
X148558250Y-171450000D03*
X158718250Y-171450000D03*
X153638250Y-171450000D03*
X156178250Y-171450000D03*
X151098250Y-171450000D03*
X140938250Y-171450000D03*
X143478250Y-171450000D03*
D15*
X164306250Y-141986000D03*
X135350250Y-141986000D03*
X135350250Y-171450000D03*
X164306250Y-171450000D03*
D16*
X457517500Y-123825000D03*
X447357500Y-123825000D03*
D17*
X452437500Y-123825000D03*
D18*
X142405000Y-164610000D03*
X142405000Y-162070000D03*
X142405000Y-156990000D03*
X142405000Y-159530000D03*
X142405000Y-151910000D03*
X142405000Y-154450000D03*
X142405000Y-146830000D03*
X142405000Y-139210000D03*
X142405000Y-144290000D03*
X142405000Y-141750000D03*
X142405000Y-136670000D03*
X142405000Y-134130000D03*
X142405000Y-131590000D03*
X142405000Y-126510000D03*
X144945000Y-123970000D03*
X142405000Y-129050000D03*
X142405000Y-123970000D03*
X142405000Y-121430000D03*
X157620000Y-151910000D03*
X157620000Y-164610000D03*
X157620000Y-156990000D03*
X157620000Y-162070000D03*
X157620000Y-159530000D03*
X157620000Y-154450000D03*
X157620000Y-146830000D03*
X157620000Y-144290000D03*
X157620000Y-141750000D03*
X157620000Y-139210000D03*
X157620000Y-136670000D03*
X157620000Y-134130000D03*
X150000000Y-123970000D03*
X152540000Y-123970000D03*
X157620000Y-131590000D03*
X157620000Y-129050000D03*
X157620000Y-126510000D03*
X157620000Y-123970000D03*
X155080000Y-123970000D03*
X157620000Y-118890000D03*
D19*
X157010400Y-116065200D03*
X143015000Y-116065200D03*
D18*
X157620000Y-121430000D03*
X142405000Y-118890000D03*
D16*
X209867500Y-161925000D03*
X199707500Y-161925000D03*
D17*
X204787500Y-161925000D03*
D16*
X524192500Y-180975000D03*
X514032500Y-180975000D03*
D17*
X519112500Y-180975000D03*
D16*
X305117500Y-161925000D03*
X294957500Y-161925000D03*
D17*
X300037500Y-161925000D03*
D20*
X142652750Y-230822500D03*
D21*
X142652750Y-233322500D03*
X142652750Y-235822500D03*
D22*
X150152750Y-227722500D03*
X150152750Y-238922500D03*
D21*
X157152750Y-230822500D03*
X157152750Y-235822500D03*
D16*
X233680000Y-219075000D03*
X223520000Y-219075000D03*
D17*
X228600000Y-219075000D03*
D16*
X314642500Y-180975000D03*
X304482500Y-180975000D03*
D17*
X309562500Y-180975000D03*
D16*
X252730000Y-219075000D03*
X242570000Y-219075000D03*
D17*
X247650000Y-219075000D03*
D16*
X238442500Y-180975000D03*
X228282500Y-180975000D03*
D17*
X233362500Y-180975000D03*
D16*
X290830000Y-219075000D03*
X280670000Y-219075000D03*
D17*
X285750000Y-219075000D03*
D16*
X462280000Y-223837500D03*
X452120000Y-223837500D03*
D17*
X457200000Y-223837500D03*
D16*
X333692500Y-180975000D03*
X323532500Y-180975000D03*
D17*
X328612500Y-180975000D03*
D16*
X195580000Y-180975000D03*
X185420000Y-180975000D03*
D17*
X190500000Y-180975000D03*
D16*
X295592500Y-180975000D03*
X285432500Y-180975000D03*
D17*
X290512500Y-180975000D03*
X342931750Y-246380000D03*
X319055750Y-246380000D03*
D23*
X342931750Y-231140000D03*
X319055750Y-231140000D03*
D16*
X336073750Y-238125000D03*
X325913750Y-238125000D03*
D17*
X330993750Y-238125000D03*
D16*
X405130000Y-219075000D03*
X394970000Y-219075000D03*
D17*
X400050000Y-219075000D03*
D16*
X395605000Y-200025000D03*
X385445000Y-200025000D03*
D17*
X390525000Y-200025000D03*
D16*
X505142500Y-123825000D03*
X494982500Y-123825000D03*
D17*
X500062500Y-123825000D03*
D16*
X243205000Y-200025000D03*
X233045000Y-200025000D03*
D17*
X238125000Y-200025000D03*
D16*
X543242500Y-123825000D03*
X533082500Y-123825000D03*
D17*
X538162500Y-123825000D03*
D16*
X431323750Y-219075000D03*
X421163750Y-219075000D03*
D17*
X426243750Y-219075000D03*
D16*
X481330000Y-242887500D03*
X471170000Y-242887500D03*
D17*
X476250000Y-242887500D03*
D16*
X417036250Y-238125000D03*
X406876250Y-238125000D03*
D17*
X411956250Y-238125000D03*
D16*
X371792500Y-238125000D03*
X361632500Y-238125000D03*
D17*
X366712500Y-238125000D03*
D16*
X276542500Y-180975000D03*
X266382500Y-180975000D03*
D17*
X271462500Y-180975000D03*
D16*
X414655000Y-200025000D03*
X404495000Y-200025000D03*
D17*
X409575000Y-200025000D03*
D16*
X219392500Y-180975000D03*
X209232500Y-180975000D03*
D17*
X214312500Y-180975000D03*
D16*
X505142500Y-161925000D03*
X494982500Y-161925000D03*
D17*
X500062500Y-161925000D03*
D16*
X543242500Y-200025000D03*
X533082500Y-200025000D03*
D17*
X538162500Y-200025000D03*
D16*
X543242500Y-180975000D03*
X533082500Y-180975000D03*
D17*
X538162500Y-180975000D03*
D16*
X543242500Y-142875000D03*
X533082500Y-142875000D03*
D17*
X538162500Y-142875000D03*
D16*
X543242500Y-161925000D03*
X533082500Y-161925000D03*
D17*
X538162500Y-161925000D03*
D16*
X486092500Y-161925000D03*
X475932500Y-161925000D03*
D17*
X481012500Y-161925000D03*
X546417500Y-216662000D03*
X546417500Y-240538000D03*
D23*
X531177500Y-216662000D03*
X531177500Y-240538000D03*
D16*
X538162500Y-223520000D03*
X538162500Y-233680000D03*
D17*
X538162500Y-228600000D03*
D16*
X524192500Y-161925000D03*
X514032500Y-161925000D03*
D17*
X519112500Y-161925000D03*
D16*
X390842500Y-180975000D03*
X380682500Y-180975000D03*
D17*
X385762500Y-180975000D03*
D16*
X505142500Y-180975000D03*
X494982500Y-180975000D03*
D17*
X500062500Y-180975000D03*
D16*
X486092500Y-180975000D03*
X475932500Y-180975000D03*
D17*
X481012500Y-180975000D03*
D16*
X524192500Y-200025000D03*
X514032500Y-200025000D03*
D17*
X519112500Y-200025000D03*
D16*
X505142500Y-200025000D03*
X494982500Y-200025000D03*
D17*
X500062500Y-200025000D03*
D16*
X486092500Y-200025000D03*
X475932500Y-200025000D03*
D17*
X481012500Y-200025000D03*
D16*
X524192500Y-219075000D03*
X514032500Y-219075000D03*
D17*
X519112500Y-219075000D03*
D16*
X505142500Y-219075000D03*
X494982500Y-219075000D03*
D17*
X500062500Y-219075000D03*
D16*
X486092500Y-219075000D03*
X475932500Y-219075000D03*
D17*
X481012500Y-219075000D03*
D16*
X505142500Y-238125000D03*
X494982500Y-238125000D03*
D17*
X500062500Y-238125000D03*
D16*
X524192500Y-238125000D03*
X514032500Y-238125000D03*
D17*
X519112500Y-238125000D03*
D16*
X428942500Y-180975000D03*
X418782500Y-180975000D03*
D17*
X423862500Y-180975000D03*
D16*
X371792500Y-180975000D03*
X361632500Y-180975000D03*
D17*
X366712500Y-180975000D03*
D16*
X486092500Y-123825000D03*
X475932500Y-123825000D03*
D17*
X481012500Y-123825000D03*
D16*
X328930000Y-219075000D03*
X318770000Y-219075000D03*
D17*
X323850000Y-219075000D03*
D16*
X400367500Y-161925000D03*
X390207500Y-161925000D03*
D17*
X395287500Y-161925000D03*
D16*
X217011250Y-238125000D03*
X206851250Y-238125000D03*
D17*
X211931250Y-238125000D03*
D16*
X347980000Y-219075000D03*
X337820000Y-219075000D03*
D17*
X342900000Y-219075000D03*
X209581750Y-227330000D03*
X185705750Y-227330000D03*
D23*
X209581750Y-212090000D03*
X185705750Y-212090000D03*
D16*
X202723750Y-219075000D03*
X192563750Y-219075000D03*
D17*
X197643750Y-219075000D03*
D16*
X443230000Y-242887500D03*
X433070000Y-242887500D03*
D17*
X438150000Y-242887500D03*
D16*
X193198750Y-238125000D03*
X183038750Y-238125000D03*
D17*
X188118750Y-238125000D03*
D16*
X240823750Y-238125000D03*
X230663750Y-238125000D03*
D17*
X235743750Y-238125000D03*
D16*
X376555000Y-200025000D03*
X366395000Y-200025000D03*
D17*
X371475000Y-200025000D03*
D16*
X357505000Y-200025000D03*
X347345000Y-200025000D03*
D17*
X352425000Y-200025000D03*
D16*
X338455000Y-200025000D03*
X328295000Y-200025000D03*
D17*
X333375000Y-200025000D03*
D16*
X352742500Y-180975000D03*
X342582500Y-180975000D03*
D17*
X347662500Y-180975000D03*
D16*
X505142500Y-142875000D03*
X494982500Y-142875000D03*
D17*
X500062500Y-142875000D03*
D16*
X319405000Y-200025000D03*
X309245000Y-200025000D03*
D17*
X314325000Y-200025000D03*
D16*
X300355000Y-200025000D03*
X290195000Y-200025000D03*
D17*
X295275000Y-200025000D03*
D16*
X393223750Y-238125000D03*
X383063750Y-238125000D03*
D17*
X388143750Y-238125000D03*
D16*
X281305000Y-200025000D03*
X271145000Y-200025000D03*
D17*
X276225000Y-200025000D03*
D16*
X438467500Y-123825000D03*
X428307500Y-123825000D03*
D17*
X433387500Y-123825000D03*
D16*
X419417500Y-123825000D03*
X409257500Y-123825000D03*
D17*
X414337500Y-123825000D03*
D16*
X400367500Y-123825000D03*
X390207500Y-123825000D03*
D17*
X395287500Y-123825000D03*
D16*
X371792500Y-123825000D03*
X361632500Y-123825000D03*
D17*
X366712500Y-123825000D03*
D16*
X352742500Y-123825000D03*
X342582500Y-123825000D03*
D17*
X347662500Y-123825000D03*
D16*
X333692500Y-123825000D03*
X323532500Y-123825000D03*
D17*
X328612500Y-123825000D03*
D16*
X314642500Y-123825000D03*
X304482500Y-123825000D03*
D17*
X309562500Y-123825000D03*
D16*
X286067500Y-123825000D03*
X275907500Y-123825000D03*
D17*
X280987500Y-123825000D03*
D16*
X267017500Y-123825000D03*
X256857500Y-123825000D03*
D17*
X261937500Y-123825000D03*
D16*
X247967500Y-123825000D03*
X237807500Y-123825000D03*
D17*
X242887500Y-123825000D03*
D16*
X228917500Y-123825000D03*
X218757500Y-123825000D03*
D17*
X223837500Y-123825000D03*
D16*
X190817500Y-123825000D03*
X180657500Y-123825000D03*
D17*
X185737500Y-123825000D03*
D16*
X419417500Y-161925000D03*
X409257500Y-161925000D03*
D17*
X414337500Y-161925000D03*
X452469250Y-208280000D03*
X428593250Y-208280000D03*
D23*
X452469250Y-193040000D03*
X428593250Y-193040000D03*
D16*
X445611250Y-200025000D03*
X435451250Y-200025000D03*
D17*
X440531250Y-200025000D03*
D16*
X524192500Y-142875000D03*
X514032500Y-142875000D03*
D17*
X519112500Y-142875000D03*
D16*
X257492500Y-180975000D03*
X247332500Y-180975000D03*
D17*
X252412500Y-180975000D03*
D16*
X462280000Y-242887500D03*
X452120000Y-242887500D03*
D17*
X457200000Y-242887500D03*
D16*
X386080000Y-219075000D03*
X375920000Y-219075000D03*
D17*
X381000000Y-219075000D03*
D16*
X486092500Y-142875000D03*
X475932500Y-142875000D03*
D17*
X481012500Y-142875000D03*
D16*
X262255000Y-238125000D03*
X252095000Y-238125000D03*
D17*
X257175000Y-238125000D03*
D16*
X262255000Y-200025000D03*
X252095000Y-200025000D03*
D17*
X257175000Y-200025000D03*
D16*
X367030000Y-219075000D03*
X356870000Y-219075000D03*
D17*
X361950000Y-219075000D03*
D16*
X409892500Y-180975000D03*
X399732500Y-180975000D03*
D17*
X404812500Y-180975000D03*
D16*
X197961250Y-200025000D03*
X187801250Y-200025000D03*
D17*
X192881250Y-200025000D03*
D16*
X271780000Y-219075000D03*
X261620000Y-219075000D03*
D17*
X266700000Y-219075000D03*
X454850500Y-170180000D03*
X430974500Y-170180000D03*
D23*
X454850500Y-154940000D03*
X430974500Y-154940000D03*
D16*
X447992500Y-161925000D03*
X437832500Y-161925000D03*
D17*
X442912500Y-161925000D03*
D16*
X452755000Y-180975000D03*
X442595000Y-180975000D03*
D17*
X447675000Y-180975000D03*
D16*
X524192500Y-123825000D03*
X514032500Y-123825000D03*
D17*
X519112500Y-123825000D03*
X297688000Y-246380000D03*
X273812000Y-246380000D03*
D23*
X297688000Y-231140000D03*
X273812000Y-231140000D03*
D16*
X290830000Y-238125000D03*
X280670000Y-238125000D03*
D17*
X285750000Y-238125000D03*
D16*
X309880000Y-219075000D03*
X299720000Y-219075000D03*
D17*
X304800000Y-219075000D03*
D16*
X224155000Y-200025000D03*
X213995000Y-200025000D03*
D17*
X219075000Y-200025000D03*
D16*
X190817500Y-161925000D03*
X180657500Y-161925000D03*
D17*
X185737500Y-161925000D03*
D16*
X362267500Y-161925000D03*
X352107500Y-161925000D03*
D17*
X357187500Y-161925000D03*
D16*
X343217500Y-161925000D03*
X333057500Y-161925000D03*
D17*
X338137500Y-161925000D03*
D16*
X324167500Y-161925000D03*
X314007500Y-161925000D03*
D17*
X319087500Y-161925000D03*
D16*
X286067500Y-161925000D03*
X275907500Y-161925000D03*
D17*
X280987500Y-161925000D03*
D16*
X267017500Y-161925000D03*
X256857500Y-161925000D03*
D17*
X261937500Y-161925000D03*
D16*
X247967500Y-161925000D03*
X237807500Y-161925000D03*
D17*
X242887500Y-161925000D03*
D16*
X228917500Y-161925000D03*
X218757500Y-161925000D03*
D17*
X223837500Y-161925000D03*
D16*
X381317500Y-161925000D03*
X371157500Y-161925000D03*
D17*
X376237500Y-161925000D03*
D24*
X238125000Y-215175000D03*
D25*
X238125000Y-222975000D03*
D26*
X238125000Y-220650000D03*
X238125000Y-217500000D03*
D24*
X319087500Y-177075000D03*
D25*
X319087500Y-184875000D03*
D26*
X319087500Y-182550000D03*
X319087500Y-179400000D03*
D24*
X257175000Y-215175000D03*
D25*
X257175000Y-222975000D03*
D26*
X257175000Y-220650000D03*
X257175000Y-217500000D03*
D24*
X242887500Y-177075000D03*
D25*
X242887500Y-184875000D03*
D26*
X242887500Y-182550000D03*
X242887500Y-179400000D03*
D24*
X295275000Y-215175000D03*
D25*
X295275000Y-222975000D03*
D26*
X295275000Y-220650000D03*
X295275000Y-217500000D03*
D24*
X466725000Y-219937500D03*
D25*
X466725000Y-227737500D03*
D26*
X466725000Y-225412500D03*
X466725000Y-222262500D03*
D24*
X338137500Y-177075000D03*
D25*
X338137500Y-184875000D03*
D26*
X338137500Y-182550000D03*
X338137500Y-179400000D03*
D24*
X200025000Y-177075000D03*
D25*
X200025000Y-184875000D03*
D26*
X200025000Y-182550000D03*
X200025000Y-179400000D03*
D24*
X300037500Y-177075000D03*
D25*
X300037500Y-184875000D03*
D26*
X300037500Y-182550000D03*
X300037500Y-179400000D03*
D24*
X350043750Y-234225000D03*
D25*
X350043750Y-242025000D03*
D26*
X350043750Y-239700000D03*
X350043750Y-236550000D03*
D24*
X409575000Y-215175000D03*
D25*
X409575000Y-222975000D03*
D26*
X409575000Y-220650000D03*
X409575000Y-217500000D03*
D24*
X400050000Y-196125000D03*
D25*
X400050000Y-203925000D03*
D26*
X400050000Y-201600000D03*
X400050000Y-198450000D03*
D24*
X490537500Y-119925000D03*
D25*
X490537500Y-127725000D03*
D26*
X490537500Y-125400000D03*
X490537500Y-122250000D03*
D24*
X247650000Y-196125000D03*
D25*
X247650000Y-203925000D03*
D26*
X247650000Y-201600000D03*
X247650000Y-198450000D03*
D24*
X528637500Y-119925000D03*
D25*
X528637500Y-127725000D03*
D26*
X528637500Y-125400000D03*
X528637500Y-122250000D03*
D24*
X435768750Y-215175000D03*
D25*
X435768750Y-222975000D03*
D26*
X435768750Y-220650000D03*
X435768750Y-217500000D03*
D24*
X485775000Y-238987500D03*
D25*
X485775000Y-246787500D03*
D26*
X485775000Y-244462500D03*
X485775000Y-241312500D03*
D24*
X423862500Y-234225000D03*
D25*
X423862500Y-242025000D03*
D26*
X423862500Y-239700000D03*
X423862500Y-236550000D03*
D24*
X376237500Y-234225000D03*
D25*
X376237500Y-242025000D03*
D26*
X376237500Y-239700000D03*
X376237500Y-236550000D03*
D24*
X280987500Y-177075000D03*
D25*
X280987500Y-184875000D03*
D26*
X280987500Y-182550000D03*
X280987500Y-179400000D03*
D24*
X419100000Y-196125000D03*
D25*
X419100000Y-203925000D03*
D26*
X419100000Y-201600000D03*
X419100000Y-198450000D03*
D24*
X223837500Y-177075000D03*
D25*
X223837500Y-184875000D03*
D26*
X223837500Y-182550000D03*
X223837500Y-179400000D03*
D24*
X490537500Y-158025000D03*
D25*
X490537500Y-165825000D03*
D26*
X490537500Y-163500000D03*
X490537500Y-160350000D03*
D24*
X528637500Y-196125000D03*
D25*
X528637500Y-203925000D03*
D26*
X528637500Y-201600000D03*
X528637500Y-198450000D03*
D24*
X528637500Y-177075000D03*
D25*
X528637500Y-184875000D03*
D26*
X528637500Y-182550000D03*
X528637500Y-179400000D03*
D24*
X528637500Y-138975000D03*
D25*
X528637500Y-146775000D03*
D26*
X528637500Y-144450000D03*
X528637500Y-141300000D03*
D24*
X528637500Y-158025000D03*
D25*
X528637500Y-165825000D03*
D26*
X528637500Y-163500000D03*
X528637500Y-160350000D03*
D24*
X471487500Y-158025000D03*
D25*
X471487500Y-165825000D03*
D26*
X471487500Y-163500000D03*
X471487500Y-160350000D03*
D24*
X534262500Y-209550000D03*
D25*
X542062500Y-209550000D03*
D26*
X539737500Y-209550000D03*
X536587500Y-209550000D03*
D24*
X509587500Y-158025000D03*
D25*
X509587500Y-165825000D03*
D26*
X509587500Y-163500000D03*
X509587500Y-160350000D03*
D24*
X395287500Y-177075000D03*
D25*
X395287500Y-184875000D03*
D26*
X395287500Y-182550000D03*
X395287500Y-179400000D03*
D24*
X509587500Y-177075000D03*
D25*
X509587500Y-184875000D03*
D26*
X509587500Y-182550000D03*
X509587500Y-179400000D03*
D24*
X490537500Y-177075000D03*
D25*
X490537500Y-184875000D03*
D26*
X490537500Y-182550000D03*
X490537500Y-179400000D03*
D24*
X471487500Y-177075000D03*
D25*
X471487500Y-184875000D03*
D26*
X471487500Y-182550000D03*
X471487500Y-179400000D03*
D24*
X509587500Y-196125000D03*
D25*
X509587500Y-203925000D03*
D26*
X509587500Y-201600000D03*
X509587500Y-198450000D03*
D24*
X490537500Y-196125000D03*
D25*
X490537500Y-203925000D03*
D26*
X490537500Y-201600000D03*
X490537500Y-198450000D03*
D24*
X471487500Y-196125000D03*
D25*
X471487500Y-203925000D03*
D26*
X471487500Y-201600000D03*
X471487500Y-198450000D03*
D24*
X509587500Y-215175000D03*
D25*
X509587500Y-222975000D03*
D26*
X509587500Y-220650000D03*
X509587500Y-217500000D03*
D24*
X490537500Y-215175000D03*
D25*
X490537500Y-222975000D03*
D26*
X490537500Y-220650000D03*
X490537500Y-217500000D03*
D24*
X471487500Y-215175000D03*
D25*
X471487500Y-222975000D03*
D26*
X471487500Y-220650000D03*
X471487500Y-217500000D03*
D24*
X509587500Y-234225000D03*
D25*
X509587500Y-242025000D03*
D26*
X509587500Y-239700000D03*
X509587500Y-236550000D03*
D24*
X490537500Y-234225000D03*
D25*
X490537500Y-242025000D03*
D26*
X490537500Y-239700000D03*
X490537500Y-236550000D03*
D24*
X433387500Y-177075000D03*
D25*
X433387500Y-184875000D03*
D26*
X433387500Y-182550000D03*
X433387500Y-179400000D03*
D24*
X376237500Y-177075000D03*
D25*
X376237500Y-184875000D03*
D26*
X376237500Y-182550000D03*
X376237500Y-179400000D03*
D24*
X471487500Y-119925000D03*
D25*
X471487500Y-127725000D03*
D26*
X471487500Y-125400000D03*
X471487500Y-122250000D03*
D24*
X333375000Y-215175000D03*
D25*
X333375000Y-222975000D03*
D26*
X333375000Y-220650000D03*
X333375000Y-217500000D03*
D24*
X404812500Y-158025000D03*
D25*
X404812500Y-165825000D03*
D26*
X404812500Y-163500000D03*
X404812500Y-160350000D03*
D24*
X223837500Y-234225000D03*
D25*
X223837500Y-242025000D03*
D26*
X223837500Y-239700000D03*
X223837500Y-236550000D03*
D24*
X352425000Y-215175000D03*
D25*
X352425000Y-222975000D03*
D26*
X352425000Y-220650000D03*
X352425000Y-217500000D03*
D24*
X216693750Y-215175000D03*
D25*
X216693750Y-222975000D03*
D26*
X216693750Y-220650000D03*
X216693750Y-217500000D03*
D24*
X447675000Y-238987500D03*
D25*
X447675000Y-246787500D03*
D26*
X447675000Y-244462500D03*
X447675000Y-241312500D03*
D24*
X200025000Y-234225000D03*
D25*
X200025000Y-242025000D03*
D26*
X200025000Y-239700000D03*
X200025000Y-236550000D03*
D24*
X245268750Y-234225000D03*
D25*
X245268750Y-242025000D03*
D26*
X245268750Y-239700000D03*
X245268750Y-236550000D03*
D24*
X381000000Y-196125000D03*
D25*
X381000000Y-203925000D03*
D26*
X381000000Y-201600000D03*
X381000000Y-198450000D03*
D24*
X361950000Y-196125000D03*
D25*
X361950000Y-203925000D03*
D26*
X361950000Y-201600000D03*
X361950000Y-198450000D03*
D24*
X342900000Y-196125000D03*
D25*
X342900000Y-203925000D03*
D26*
X342900000Y-201600000D03*
X342900000Y-198450000D03*
D24*
X471487500Y-138975000D03*
D25*
X471487500Y-146775000D03*
D26*
X471487500Y-144450000D03*
X471487500Y-141300000D03*
D24*
X357187500Y-177075000D03*
D25*
X357187500Y-184875000D03*
D26*
X357187500Y-182550000D03*
X357187500Y-179400000D03*
D24*
X490537500Y-138975000D03*
D25*
X490537500Y-146775000D03*
D26*
X490537500Y-144450000D03*
X490537500Y-141300000D03*
D24*
X323850000Y-196125000D03*
D25*
X323850000Y-203925000D03*
D26*
X323850000Y-201600000D03*
X323850000Y-198450000D03*
D24*
X304800000Y-196125000D03*
D25*
X304800000Y-203925000D03*
D26*
X304800000Y-201600000D03*
X304800000Y-198450000D03*
D24*
X397668750Y-234225000D03*
D25*
X397668750Y-242025000D03*
D26*
X397668750Y-239700000D03*
X397668750Y-236550000D03*
D24*
X285750000Y-196125000D03*
D25*
X285750000Y-203925000D03*
D26*
X285750000Y-201600000D03*
X285750000Y-198450000D03*
D24*
X461962500Y-119925000D03*
D25*
X461962500Y-127725000D03*
D26*
X461962500Y-125400000D03*
X461962500Y-122250000D03*
D24*
X442912500Y-119925000D03*
D25*
X442912500Y-127725000D03*
D26*
X442912500Y-125400000D03*
X442912500Y-122250000D03*
D24*
X423862500Y-119925000D03*
D25*
X423862500Y-127725000D03*
D26*
X423862500Y-125400000D03*
X423862500Y-122250000D03*
D24*
X404812500Y-119925000D03*
D25*
X404812500Y-127725000D03*
D26*
X404812500Y-125400000D03*
X404812500Y-122250000D03*
D24*
X376237500Y-119925000D03*
D25*
X376237500Y-127725000D03*
D26*
X376237500Y-125400000D03*
X376237500Y-122250000D03*
D24*
X357187500Y-119925000D03*
D25*
X357187500Y-127725000D03*
D26*
X357187500Y-125400000D03*
X357187500Y-122250000D03*
D24*
X338137500Y-119925000D03*
D25*
X338137500Y-127725000D03*
D26*
X338137500Y-125400000D03*
X338137500Y-122250000D03*
D24*
X319087500Y-119925000D03*
D25*
X319087500Y-127725000D03*
D26*
X319087500Y-125400000D03*
X319087500Y-122250000D03*
D24*
X290512500Y-119925000D03*
D25*
X290512500Y-127725000D03*
D26*
X290512500Y-125400000D03*
X290512500Y-122250000D03*
D24*
X271462500Y-119925000D03*
D25*
X271462500Y-127725000D03*
D26*
X271462500Y-125400000D03*
X271462500Y-122250000D03*
D24*
X252412500Y-119925000D03*
D25*
X252412500Y-127725000D03*
D26*
X252412500Y-125400000D03*
X252412500Y-122250000D03*
D24*
X233362500Y-119925000D03*
D25*
X233362500Y-127725000D03*
D26*
X233362500Y-125400000D03*
X233362500Y-122250000D03*
D24*
X195262500Y-119925000D03*
D25*
X195262500Y-127725000D03*
D26*
X195262500Y-125400000D03*
X195262500Y-122250000D03*
D24*
X423862500Y-158025000D03*
D25*
X423862500Y-165825000D03*
D26*
X423862500Y-163500000D03*
X423862500Y-160350000D03*
D24*
X459581250Y-196125000D03*
D25*
X459581250Y-203925000D03*
D26*
X459581250Y-201600000D03*
X459581250Y-198450000D03*
D24*
X509587500Y-138975000D03*
D25*
X509587500Y-146775000D03*
D26*
X509587500Y-144450000D03*
X509587500Y-141300000D03*
D24*
X178593750Y-215175000D03*
D25*
X178593750Y-222975000D03*
D26*
X178593750Y-220650000D03*
X178593750Y-217500000D03*
D24*
X261937500Y-177075000D03*
D25*
X261937500Y-184875000D03*
D26*
X261937500Y-182550000D03*
X261937500Y-179400000D03*
D24*
X466725000Y-238987500D03*
D25*
X466725000Y-246787500D03*
D26*
X466725000Y-244462500D03*
X466725000Y-241312500D03*
D24*
X390525000Y-215175000D03*
D25*
X390525000Y-222975000D03*
D26*
X390525000Y-220650000D03*
X390525000Y-217500000D03*
D24*
X266700000Y-234225000D03*
D25*
X266700000Y-242025000D03*
D26*
X266700000Y-239700000D03*
X266700000Y-236550000D03*
D24*
X266700000Y-196125000D03*
D25*
X266700000Y-203925000D03*
D26*
X266700000Y-201600000D03*
X266700000Y-198450000D03*
D24*
X371475000Y-215175000D03*
D25*
X371475000Y-222975000D03*
D26*
X371475000Y-220650000D03*
X371475000Y-217500000D03*
D24*
X414337500Y-177075000D03*
D25*
X414337500Y-184875000D03*
D26*
X414337500Y-182550000D03*
X414337500Y-179400000D03*
D24*
X202406250Y-196125000D03*
D25*
X202406250Y-203925000D03*
D26*
X202406250Y-201600000D03*
X202406250Y-198450000D03*
D24*
X276225000Y-215175000D03*
D25*
X276225000Y-222975000D03*
D26*
X276225000Y-220650000D03*
X276225000Y-217500000D03*
D24*
X461962500Y-158025000D03*
D25*
X461962500Y-165825000D03*
D26*
X461962500Y-163500000D03*
X461962500Y-160350000D03*
D24*
X461962500Y-177075000D03*
D25*
X461962500Y-184875000D03*
D26*
X461962500Y-182550000D03*
X461962500Y-179400000D03*
D24*
X509587500Y-119925000D03*
D25*
X509587500Y-127725000D03*
D26*
X509587500Y-125400000D03*
X509587500Y-122250000D03*
D24*
X304800000Y-234225000D03*
D25*
X304800000Y-242025000D03*
D26*
X304800000Y-239700000D03*
X304800000Y-236550000D03*
D24*
X314325000Y-215175000D03*
D25*
X314325000Y-222975000D03*
D26*
X314325000Y-220650000D03*
X314325000Y-217500000D03*
D24*
X228600000Y-196125000D03*
D25*
X228600000Y-203925000D03*
D26*
X228600000Y-201600000D03*
X228600000Y-198450000D03*
D24*
X195262500Y-158025000D03*
D25*
X195262500Y-165825000D03*
D26*
X195262500Y-163500000D03*
X195262500Y-160350000D03*
D24*
X366712500Y-158025000D03*
D25*
X366712500Y-165825000D03*
D26*
X366712500Y-163500000D03*
X366712500Y-160350000D03*
D24*
X347662500Y-158025000D03*
D25*
X347662500Y-165825000D03*
D26*
X347662500Y-163500000D03*
X347662500Y-160350000D03*
D24*
X328612500Y-158025000D03*
D25*
X328612500Y-165825000D03*
D26*
X328612500Y-163500000D03*
X328612500Y-160350000D03*
D24*
X309562500Y-158025000D03*
D25*
X309562500Y-165825000D03*
D26*
X309562500Y-163500000D03*
X309562500Y-160350000D03*
D24*
X290512500Y-158025000D03*
D25*
X290512500Y-165825000D03*
D26*
X290512500Y-163500000D03*
X290512500Y-160350000D03*
D24*
X271462500Y-158025000D03*
D25*
X271462500Y-165825000D03*
D26*
X271462500Y-163500000D03*
X271462500Y-160350000D03*
D24*
X252412500Y-158025000D03*
D25*
X252412500Y-165825000D03*
D26*
X252412500Y-163500000D03*
X252412500Y-160350000D03*
D24*
X233362500Y-158025000D03*
D25*
X233362500Y-165825000D03*
D26*
X233362500Y-163500000D03*
X233362500Y-160350000D03*
D24*
X214312500Y-158025000D03*
D25*
X214312500Y-165825000D03*
D26*
X214312500Y-163500000D03*
X214312500Y-160350000D03*
D24*
X385762500Y-158025000D03*
D25*
X385762500Y-165825000D03*
D26*
X385762500Y-163500000D03*
X385762500Y-160350000D03*
M02*
