G04 #@! TF.GenerationSoftware,KiCad,Pcbnew,(5.1.6)-1*
G04 #@! TF.CreationDate,2020-10-04T22:42:36-04:00*
G04 #@! TF.ProjectId,keyboard,6b657962-6f61-4726-942e-6b696361645f,rev?*
G04 #@! TF.SameCoordinates,Original*
G04 #@! TF.FileFunction,Other,Comment*
%FSLAX46Y46*%
G04 Gerber Fmt 4.6, Leading zero omitted, Abs format (unit mm)*
G04 Created by KiCad (PCBNEW (5.1.6)-1) date 2020-10-04 22:42:36*
%MOMM*%
%LPD*%
G01*
G04 APERTURE LIST*
%ADD10C,0.100000*%
%ADD11C,0.150000*%
%ADD12C,0.300000*%
%ADD13C,0.400000*%
G04 APERTURE END LIST*
D10*
D11*
X474004400Y-375989000D02*
X474004400Y-407989000D01*
X582004400Y-407989000D01*
X582004400Y-375989000D01*
X474004400Y-375989000D01*
D10*
D11*
X10000000Y-10000000D02*
X10000000Y-409989000D01*
X584004400Y-409989000D01*
X584004400Y-10000000D01*
X10000000Y-10000000D01*
D10*
D11*
X12000000Y-12000000D02*
X12000000Y-407989000D01*
X582004400Y-407989000D01*
X582004400Y-12000000D01*
X12000000Y-12000000D01*
D10*
D11*
X60000000Y-12000000D02*
X60000000Y-10000000D01*
D10*
D11*
X110000000Y-12000000D02*
X110000000Y-10000000D01*
D10*
D11*
X160000000Y-12000000D02*
X160000000Y-10000000D01*
D10*
D11*
X210000000Y-12000000D02*
X210000000Y-10000000D01*
D10*
D11*
X260000000Y-12000000D02*
X260000000Y-10000000D01*
D10*
D11*
X310000000Y-12000000D02*
X310000000Y-10000000D01*
D10*
D11*
X360000000Y-12000000D02*
X360000000Y-10000000D01*
D10*
D11*
X410000000Y-12000000D02*
X410000000Y-10000000D01*
D10*
D11*
X460000000Y-12000000D02*
X460000000Y-10000000D01*
D10*
D11*
X510000000Y-12000000D02*
X510000000Y-10000000D01*
D10*
D11*
X560000000Y-12000000D02*
X560000000Y-10000000D01*
D10*
D11*
X36065476Y-11588095D02*
X35322619Y-11588095D01*
X35694047Y-11588095D02*
X35694047Y-10288095D01*
X35570238Y-10473809D01*
X35446428Y-10597619D01*
X35322619Y-10659523D01*
D10*
D11*
X85322619Y-10411904D02*
X85384523Y-10350000D01*
X85508333Y-10288095D01*
X85817857Y-10288095D01*
X85941666Y-10350000D01*
X86003571Y-10411904D01*
X86065476Y-10535714D01*
X86065476Y-10659523D01*
X86003571Y-10845238D01*
X85260714Y-11588095D01*
X86065476Y-11588095D01*
D10*
D11*
X135260714Y-10288095D02*
X136065476Y-10288095D01*
X135632142Y-10783333D01*
X135817857Y-10783333D01*
X135941666Y-10845238D01*
X136003571Y-10907142D01*
X136065476Y-11030952D01*
X136065476Y-11340476D01*
X136003571Y-11464285D01*
X135941666Y-11526190D01*
X135817857Y-11588095D01*
X135446428Y-11588095D01*
X135322619Y-11526190D01*
X135260714Y-11464285D01*
D10*
D11*
X185941666Y-10721428D02*
X185941666Y-11588095D01*
X185632142Y-10226190D02*
X185322619Y-11154761D01*
X186127380Y-11154761D01*
D10*
D11*
X236003571Y-10288095D02*
X235384523Y-10288095D01*
X235322619Y-10907142D01*
X235384523Y-10845238D01*
X235508333Y-10783333D01*
X235817857Y-10783333D01*
X235941666Y-10845238D01*
X236003571Y-10907142D01*
X236065476Y-11030952D01*
X236065476Y-11340476D01*
X236003571Y-11464285D01*
X235941666Y-11526190D01*
X235817857Y-11588095D01*
X235508333Y-11588095D01*
X235384523Y-11526190D01*
X235322619Y-11464285D01*
D10*
D11*
X285941666Y-10288095D02*
X285694047Y-10288095D01*
X285570238Y-10350000D01*
X285508333Y-10411904D01*
X285384523Y-10597619D01*
X285322619Y-10845238D01*
X285322619Y-11340476D01*
X285384523Y-11464285D01*
X285446428Y-11526190D01*
X285570238Y-11588095D01*
X285817857Y-11588095D01*
X285941666Y-11526190D01*
X286003571Y-11464285D01*
X286065476Y-11340476D01*
X286065476Y-11030952D01*
X286003571Y-10907142D01*
X285941666Y-10845238D01*
X285817857Y-10783333D01*
X285570238Y-10783333D01*
X285446428Y-10845238D01*
X285384523Y-10907142D01*
X285322619Y-11030952D01*
D10*
D11*
X335260714Y-10288095D02*
X336127380Y-10288095D01*
X335570238Y-11588095D01*
D10*
D11*
X385570238Y-10845238D02*
X385446428Y-10783333D01*
X385384523Y-10721428D01*
X385322619Y-10597619D01*
X385322619Y-10535714D01*
X385384523Y-10411904D01*
X385446428Y-10350000D01*
X385570238Y-10288095D01*
X385817857Y-10288095D01*
X385941666Y-10350000D01*
X386003571Y-10411904D01*
X386065476Y-10535714D01*
X386065476Y-10597619D01*
X386003571Y-10721428D01*
X385941666Y-10783333D01*
X385817857Y-10845238D01*
X385570238Y-10845238D01*
X385446428Y-10907142D01*
X385384523Y-10969047D01*
X385322619Y-11092857D01*
X385322619Y-11340476D01*
X385384523Y-11464285D01*
X385446428Y-11526190D01*
X385570238Y-11588095D01*
X385817857Y-11588095D01*
X385941666Y-11526190D01*
X386003571Y-11464285D01*
X386065476Y-11340476D01*
X386065476Y-11092857D01*
X386003571Y-10969047D01*
X385941666Y-10907142D01*
X385817857Y-10845238D01*
D10*
D11*
X435446428Y-11588095D02*
X435694047Y-11588095D01*
X435817857Y-11526190D01*
X435879761Y-11464285D01*
X436003571Y-11278571D01*
X436065476Y-11030952D01*
X436065476Y-10535714D01*
X436003571Y-10411904D01*
X435941666Y-10350000D01*
X435817857Y-10288095D01*
X435570238Y-10288095D01*
X435446428Y-10350000D01*
X435384523Y-10411904D01*
X435322619Y-10535714D01*
X435322619Y-10845238D01*
X435384523Y-10969047D01*
X435446428Y-11030952D01*
X435570238Y-11092857D01*
X435817857Y-11092857D01*
X435941666Y-11030952D01*
X436003571Y-10969047D01*
X436065476Y-10845238D01*
D10*
D11*
X486065476Y-11588095D02*
X485322619Y-11588095D01*
X485694047Y-11588095D02*
X485694047Y-10288095D01*
X485570238Y-10473809D01*
X485446428Y-10597619D01*
X485322619Y-10659523D01*
X486870238Y-10288095D02*
X486994047Y-10288095D01*
X487117857Y-10350000D01*
X487179761Y-10411904D01*
X487241666Y-10535714D01*
X487303571Y-10783333D01*
X487303571Y-11092857D01*
X487241666Y-11340476D01*
X487179761Y-11464285D01*
X487117857Y-11526190D01*
X486994047Y-11588095D01*
X486870238Y-11588095D01*
X486746428Y-11526190D01*
X486684523Y-11464285D01*
X486622619Y-11340476D01*
X486560714Y-11092857D01*
X486560714Y-10783333D01*
X486622619Y-10535714D01*
X486684523Y-10411904D01*
X486746428Y-10350000D01*
X486870238Y-10288095D01*
D10*
D11*
X536065476Y-11588095D02*
X535322619Y-11588095D01*
X535694047Y-11588095D02*
X535694047Y-10288095D01*
X535570238Y-10473809D01*
X535446428Y-10597619D01*
X535322619Y-10659523D01*
X537303571Y-11588095D02*
X536560714Y-11588095D01*
X536932142Y-11588095D02*
X536932142Y-10288095D01*
X536808333Y-10473809D01*
X536684523Y-10597619D01*
X536560714Y-10659523D01*
D10*
D11*
X60000000Y-407989000D02*
X60000000Y-409989000D01*
D10*
D11*
X110000000Y-407989000D02*
X110000000Y-409989000D01*
D10*
D11*
X160000000Y-407989000D02*
X160000000Y-409989000D01*
D10*
D11*
X210000000Y-407989000D02*
X210000000Y-409989000D01*
D10*
D11*
X260000000Y-407989000D02*
X260000000Y-409989000D01*
D10*
D11*
X310000000Y-407989000D02*
X310000000Y-409989000D01*
D10*
D11*
X360000000Y-407989000D02*
X360000000Y-409989000D01*
D10*
D11*
X410000000Y-407989000D02*
X410000000Y-409989000D01*
D10*
D11*
X460000000Y-407989000D02*
X460000000Y-409989000D01*
D10*
D11*
X510000000Y-407989000D02*
X510000000Y-409989000D01*
D10*
D11*
X560000000Y-407989000D02*
X560000000Y-409989000D01*
D10*
D11*
X36065476Y-409577095D02*
X35322619Y-409577095D01*
X35694047Y-409577095D02*
X35694047Y-408277095D01*
X35570238Y-408462809D01*
X35446428Y-408586619D01*
X35322619Y-408648523D01*
D10*
D11*
X85322619Y-408400904D02*
X85384523Y-408339000D01*
X85508333Y-408277095D01*
X85817857Y-408277095D01*
X85941666Y-408339000D01*
X86003571Y-408400904D01*
X86065476Y-408524714D01*
X86065476Y-408648523D01*
X86003571Y-408834238D01*
X85260714Y-409577095D01*
X86065476Y-409577095D01*
D10*
D11*
X135260714Y-408277095D02*
X136065476Y-408277095D01*
X135632142Y-408772333D01*
X135817857Y-408772333D01*
X135941666Y-408834238D01*
X136003571Y-408896142D01*
X136065476Y-409019952D01*
X136065476Y-409329476D01*
X136003571Y-409453285D01*
X135941666Y-409515190D01*
X135817857Y-409577095D01*
X135446428Y-409577095D01*
X135322619Y-409515190D01*
X135260714Y-409453285D01*
D10*
D11*
X185941666Y-408710428D02*
X185941666Y-409577095D01*
X185632142Y-408215190D02*
X185322619Y-409143761D01*
X186127380Y-409143761D01*
D10*
D11*
X236003571Y-408277095D02*
X235384523Y-408277095D01*
X235322619Y-408896142D01*
X235384523Y-408834238D01*
X235508333Y-408772333D01*
X235817857Y-408772333D01*
X235941666Y-408834238D01*
X236003571Y-408896142D01*
X236065476Y-409019952D01*
X236065476Y-409329476D01*
X236003571Y-409453285D01*
X235941666Y-409515190D01*
X235817857Y-409577095D01*
X235508333Y-409577095D01*
X235384523Y-409515190D01*
X235322619Y-409453285D01*
D10*
D11*
X285941666Y-408277095D02*
X285694047Y-408277095D01*
X285570238Y-408339000D01*
X285508333Y-408400904D01*
X285384523Y-408586619D01*
X285322619Y-408834238D01*
X285322619Y-409329476D01*
X285384523Y-409453285D01*
X285446428Y-409515190D01*
X285570238Y-409577095D01*
X285817857Y-409577095D01*
X285941666Y-409515190D01*
X286003571Y-409453285D01*
X286065476Y-409329476D01*
X286065476Y-409019952D01*
X286003571Y-408896142D01*
X285941666Y-408834238D01*
X285817857Y-408772333D01*
X285570238Y-408772333D01*
X285446428Y-408834238D01*
X285384523Y-408896142D01*
X285322619Y-409019952D01*
D10*
D11*
X335260714Y-408277095D02*
X336127380Y-408277095D01*
X335570238Y-409577095D01*
D10*
D11*
X385570238Y-408834238D02*
X385446428Y-408772333D01*
X385384523Y-408710428D01*
X385322619Y-408586619D01*
X385322619Y-408524714D01*
X385384523Y-408400904D01*
X385446428Y-408339000D01*
X385570238Y-408277095D01*
X385817857Y-408277095D01*
X385941666Y-408339000D01*
X386003571Y-408400904D01*
X386065476Y-408524714D01*
X386065476Y-408586619D01*
X386003571Y-408710428D01*
X385941666Y-408772333D01*
X385817857Y-408834238D01*
X385570238Y-408834238D01*
X385446428Y-408896142D01*
X385384523Y-408958047D01*
X385322619Y-409081857D01*
X385322619Y-409329476D01*
X385384523Y-409453285D01*
X385446428Y-409515190D01*
X385570238Y-409577095D01*
X385817857Y-409577095D01*
X385941666Y-409515190D01*
X386003571Y-409453285D01*
X386065476Y-409329476D01*
X386065476Y-409081857D01*
X386003571Y-408958047D01*
X385941666Y-408896142D01*
X385817857Y-408834238D01*
D10*
D11*
X435446428Y-409577095D02*
X435694047Y-409577095D01*
X435817857Y-409515190D01*
X435879761Y-409453285D01*
X436003571Y-409267571D01*
X436065476Y-409019952D01*
X436065476Y-408524714D01*
X436003571Y-408400904D01*
X435941666Y-408339000D01*
X435817857Y-408277095D01*
X435570238Y-408277095D01*
X435446428Y-408339000D01*
X435384523Y-408400904D01*
X435322619Y-408524714D01*
X435322619Y-408834238D01*
X435384523Y-408958047D01*
X435446428Y-409019952D01*
X435570238Y-409081857D01*
X435817857Y-409081857D01*
X435941666Y-409019952D01*
X436003571Y-408958047D01*
X436065476Y-408834238D01*
D10*
D11*
X486065476Y-409577095D02*
X485322619Y-409577095D01*
X485694047Y-409577095D02*
X485694047Y-408277095D01*
X485570238Y-408462809D01*
X485446428Y-408586619D01*
X485322619Y-408648523D01*
X486870238Y-408277095D02*
X486994047Y-408277095D01*
X487117857Y-408339000D01*
X487179761Y-408400904D01*
X487241666Y-408524714D01*
X487303571Y-408772333D01*
X487303571Y-409081857D01*
X487241666Y-409329476D01*
X487179761Y-409453285D01*
X487117857Y-409515190D01*
X486994047Y-409577095D01*
X486870238Y-409577095D01*
X486746428Y-409515190D01*
X486684523Y-409453285D01*
X486622619Y-409329476D01*
X486560714Y-409081857D01*
X486560714Y-408772333D01*
X486622619Y-408524714D01*
X486684523Y-408400904D01*
X486746428Y-408339000D01*
X486870238Y-408277095D01*
D10*
D11*
X536065476Y-409577095D02*
X535322619Y-409577095D01*
X535694047Y-409577095D02*
X535694047Y-408277095D01*
X535570238Y-408462809D01*
X535446428Y-408586619D01*
X535322619Y-408648523D01*
X537303571Y-409577095D02*
X536560714Y-409577095D01*
X536932142Y-409577095D02*
X536932142Y-408277095D01*
X536808333Y-408462809D01*
X536684523Y-408586619D01*
X536560714Y-408648523D01*
D10*
D11*
X10000000Y-60000000D02*
X12000000Y-60000000D01*
D10*
D11*
X10000000Y-110000000D02*
X12000000Y-110000000D01*
D10*
D11*
X10000000Y-160000000D02*
X12000000Y-160000000D01*
D10*
D11*
X10000000Y-210000000D02*
X12000000Y-210000000D01*
D10*
D11*
X10000000Y-260000000D02*
X12000000Y-260000000D01*
D10*
D11*
X10000000Y-310000000D02*
X12000000Y-310000000D01*
D10*
D11*
X10000000Y-360000000D02*
X12000000Y-360000000D01*
D10*
D11*
X10690476Y-35216666D02*
X11309523Y-35216666D01*
X10566666Y-35588095D02*
X11000000Y-34288095D01*
X11433333Y-35588095D01*
D10*
D11*
X11092857Y-84907142D02*
X11278571Y-84969047D01*
X11340476Y-85030952D01*
X11402380Y-85154761D01*
X11402380Y-85340476D01*
X11340476Y-85464285D01*
X11278571Y-85526190D01*
X11154761Y-85588095D01*
X10659523Y-85588095D01*
X10659523Y-84288095D01*
X11092857Y-84288095D01*
X11216666Y-84350000D01*
X11278571Y-84411904D01*
X11340476Y-84535714D01*
X11340476Y-84659523D01*
X11278571Y-84783333D01*
X11216666Y-84845238D01*
X11092857Y-84907142D01*
X10659523Y-84907142D01*
D10*
D11*
X11402380Y-135464285D02*
X11340476Y-135526190D01*
X11154761Y-135588095D01*
X11030952Y-135588095D01*
X10845238Y-135526190D01*
X10721428Y-135402380D01*
X10659523Y-135278571D01*
X10597619Y-135030952D01*
X10597619Y-134845238D01*
X10659523Y-134597619D01*
X10721428Y-134473809D01*
X10845238Y-134350000D01*
X11030952Y-134288095D01*
X11154761Y-134288095D01*
X11340476Y-134350000D01*
X11402380Y-134411904D01*
D10*
D11*
X10659523Y-185588095D02*
X10659523Y-184288095D01*
X10969047Y-184288095D01*
X11154761Y-184350000D01*
X11278571Y-184473809D01*
X11340476Y-184597619D01*
X11402380Y-184845238D01*
X11402380Y-185030952D01*
X11340476Y-185278571D01*
X11278571Y-185402380D01*
X11154761Y-185526190D01*
X10969047Y-185588095D01*
X10659523Y-185588095D01*
D10*
D11*
X10721428Y-234907142D02*
X11154761Y-234907142D01*
X11340476Y-235588095D02*
X10721428Y-235588095D01*
X10721428Y-234288095D01*
X11340476Y-234288095D01*
D10*
D11*
X11185714Y-284907142D02*
X10752380Y-284907142D01*
X10752380Y-285588095D02*
X10752380Y-284288095D01*
X11371428Y-284288095D01*
D10*
D11*
X11340476Y-334350000D02*
X11216666Y-334288095D01*
X11030952Y-334288095D01*
X10845238Y-334350000D01*
X10721428Y-334473809D01*
X10659523Y-334597619D01*
X10597619Y-334845238D01*
X10597619Y-335030952D01*
X10659523Y-335278571D01*
X10721428Y-335402380D01*
X10845238Y-335526190D01*
X11030952Y-335588095D01*
X11154761Y-335588095D01*
X11340476Y-335526190D01*
X11402380Y-335464285D01*
X11402380Y-335030952D01*
X11154761Y-335030952D01*
D10*
D11*
X10628571Y-385588095D02*
X10628571Y-384288095D01*
X10628571Y-384907142D02*
X11371428Y-384907142D01*
X11371428Y-385588095D02*
X11371428Y-384288095D01*
D10*
D11*
X584004400Y-60000000D02*
X582004400Y-60000000D01*
D10*
D11*
X584004400Y-110000000D02*
X582004400Y-110000000D01*
D10*
D11*
X584004400Y-160000000D02*
X582004400Y-160000000D01*
D10*
D11*
X584004400Y-210000000D02*
X582004400Y-210000000D01*
D10*
D11*
X584004400Y-260000000D02*
X582004400Y-260000000D01*
D10*
D11*
X584004400Y-310000000D02*
X582004400Y-310000000D01*
D10*
D11*
X584004400Y-360000000D02*
X582004400Y-360000000D01*
D10*
D11*
X582694876Y-35216666D02*
X583313923Y-35216666D01*
X582571066Y-35588095D02*
X583004400Y-34288095D01*
X583437733Y-35588095D01*
D10*
D11*
X583097257Y-84907142D02*
X583282971Y-84969047D01*
X583344876Y-85030952D01*
X583406780Y-85154761D01*
X583406780Y-85340476D01*
X583344876Y-85464285D01*
X583282971Y-85526190D01*
X583159161Y-85588095D01*
X582663923Y-85588095D01*
X582663923Y-84288095D01*
X583097257Y-84288095D01*
X583221066Y-84350000D01*
X583282971Y-84411904D01*
X583344876Y-84535714D01*
X583344876Y-84659523D01*
X583282971Y-84783333D01*
X583221066Y-84845238D01*
X583097257Y-84907142D01*
X582663923Y-84907142D01*
D10*
D11*
X583406780Y-135464285D02*
X583344876Y-135526190D01*
X583159161Y-135588095D01*
X583035352Y-135588095D01*
X582849638Y-135526190D01*
X582725828Y-135402380D01*
X582663923Y-135278571D01*
X582602019Y-135030952D01*
X582602019Y-134845238D01*
X582663923Y-134597619D01*
X582725828Y-134473809D01*
X582849638Y-134350000D01*
X583035352Y-134288095D01*
X583159161Y-134288095D01*
X583344876Y-134350000D01*
X583406780Y-134411904D01*
D10*
D11*
X582663923Y-185588095D02*
X582663923Y-184288095D01*
X582973447Y-184288095D01*
X583159161Y-184350000D01*
X583282971Y-184473809D01*
X583344876Y-184597619D01*
X583406780Y-184845238D01*
X583406780Y-185030952D01*
X583344876Y-185278571D01*
X583282971Y-185402380D01*
X583159161Y-185526190D01*
X582973447Y-185588095D01*
X582663923Y-185588095D01*
D10*
D11*
X582725828Y-234907142D02*
X583159161Y-234907142D01*
X583344876Y-235588095D02*
X582725828Y-235588095D01*
X582725828Y-234288095D01*
X583344876Y-234288095D01*
D10*
D11*
X583190114Y-284907142D02*
X582756780Y-284907142D01*
X582756780Y-285588095D02*
X582756780Y-284288095D01*
X583375828Y-284288095D01*
D10*
D11*
X583344876Y-334350000D02*
X583221066Y-334288095D01*
X583035352Y-334288095D01*
X582849638Y-334350000D01*
X582725828Y-334473809D01*
X582663923Y-334597619D01*
X582602019Y-334845238D01*
X582602019Y-335030952D01*
X582663923Y-335278571D01*
X582725828Y-335402380D01*
X582849638Y-335526190D01*
X583035352Y-335588095D01*
X583159161Y-335588095D01*
X583344876Y-335526190D01*
X583406780Y-335464285D01*
X583406780Y-335030952D01*
X583159161Y-335030952D01*
D10*
D11*
X582632971Y-385588095D02*
X582632971Y-384288095D01*
X582632971Y-384907142D02*
X583375828Y-384907142D01*
X583375828Y-385588095D02*
X583375828Y-384288095D01*
D10*
D11*
X497436542Y-403767571D02*
X497436542Y-402267571D01*
X497793685Y-402267571D01*
X498007971Y-402339000D01*
X498150828Y-402481857D01*
X498222257Y-402624714D01*
X498293685Y-402910428D01*
X498293685Y-403124714D01*
X498222257Y-403410428D01*
X498150828Y-403553285D01*
X498007971Y-403696142D01*
X497793685Y-403767571D01*
X497436542Y-403767571D01*
X499579400Y-403767571D02*
X499579400Y-402981857D01*
X499507971Y-402839000D01*
X499365114Y-402767571D01*
X499079400Y-402767571D01*
X498936542Y-402839000D01*
X499579400Y-403696142D02*
X499436542Y-403767571D01*
X499079400Y-403767571D01*
X498936542Y-403696142D01*
X498865114Y-403553285D01*
X498865114Y-403410428D01*
X498936542Y-403267571D01*
X499079400Y-403196142D01*
X499436542Y-403196142D01*
X499579400Y-403124714D01*
X500079400Y-402767571D02*
X500650828Y-402767571D01*
X500293685Y-402267571D02*
X500293685Y-403553285D01*
X500365114Y-403696142D01*
X500507971Y-403767571D01*
X500650828Y-403767571D01*
X501722257Y-403696142D02*
X501579400Y-403767571D01*
X501293685Y-403767571D01*
X501150828Y-403696142D01*
X501079400Y-403553285D01*
X501079400Y-402981857D01*
X501150828Y-402839000D01*
X501293685Y-402767571D01*
X501579400Y-402767571D01*
X501722257Y-402839000D01*
X501793685Y-402981857D01*
X501793685Y-403124714D01*
X501079400Y-403267571D01*
X502436542Y-403624714D02*
X502507971Y-403696142D01*
X502436542Y-403767571D01*
X502365114Y-403696142D01*
X502436542Y-403624714D01*
X502436542Y-403767571D01*
X502436542Y-402839000D02*
X502507971Y-402910428D01*
X502436542Y-402981857D01*
X502365114Y-402910428D01*
X502436542Y-402839000D01*
X502436542Y-402981857D01*
D10*
D11*
X474004400Y-404489000D02*
X582004400Y-404489000D01*
D10*
D11*
X475436542Y-406567571D02*
X475436542Y-405067571D01*
X476293685Y-406567571D02*
X475650828Y-405710428D01*
X476293685Y-405067571D02*
X475436542Y-405924714D01*
X476936542Y-406567571D02*
X476936542Y-405567571D01*
X476936542Y-405067571D02*
X476865114Y-405139000D01*
X476936542Y-405210428D01*
X477007971Y-405139000D01*
X476936542Y-405067571D01*
X476936542Y-405210428D01*
X478507971Y-406424714D02*
X478436542Y-406496142D01*
X478222257Y-406567571D01*
X478079400Y-406567571D01*
X477865114Y-406496142D01*
X477722257Y-406353285D01*
X477650828Y-406210428D01*
X477579400Y-405924714D01*
X477579400Y-405710428D01*
X477650828Y-405424714D01*
X477722257Y-405281857D01*
X477865114Y-405139000D01*
X478079400Y-405067571D01*
X478222257Y-405067571D01*
X478436542Y-405139000D01*
X478507971Y-405210428D01*
X479793685Y-406567571D02*
X479793685Y-405781857D01*
X479722257Y-405639000D01*
X479579400Y-405567571D01*
X479293685Y-405567571D01*
X479150828Y-405639000D01*
X479793685Y-406496142D02*
X479650828Y-406567571D01*
X479293685Y-406567571D01*
X479150828Y-406496142D01*
X479079400Y-406353285D01*
X479079400Y-406210428D01*
X479150828Y-406067571D01*
X479293685Y-405996142D01*
X479650828Y-405996142D01*
X479793685Y-405924714D01*
X481150828Y-406567571D02*
X481150828Y-405067571D01*
X481150828Y-406496142D02*
X481007971Y-406567571D01*
X480722257Y-406567571D01*
X480579400Y-406496142D01*
X480507971Y-406424714D01*
X480436542Y-406281857D01*
X480436542Y-405853285D01*
X480507971Y-405710428D01*
X480579400Y-405639000D01*
X480722257Y-405567571D01*
X481007971Y-405567571D01*
X481150828Y-405639000D01*
X483007971Y-405781857D02*
X483507971Y-405781857D01*
X483722257Y-406567571D02*
X483007971Y-406567571D01*
X483007971Y-405067571D01*
X483722257Y-405067571D01*
X484365114Y-406424714D02*
X484436542Y-406496142D01*
X484365114Y-406567571D01*
X484293685Y-406496142D01*
X484365114Y-406424714D01*
X484365114Y-406567571D01*
X485079400Y-406567571D02*
X485079400Y-405067571D01*
X485436542Y-405067571D01*
X485650828Y-405139000D01*
X485793685Y-405281857D01*
X485865114Y-405424714D01*
X485936542Y-405710428D01*
X485936542Y-405924714D01*
X485865114Y-406210428D01*
X485793685Y-406353285D01*
X485650828Y-406496142D01*
X485436542Y-406567571D01*
X485079400Y-406567571D01*
X486579400Y-406424714D02*
X486650828Y-406496142D01*
X486579400Y-406567571D01*
X486507971Y-406496142D01*
X486579400Y-406424714D01*
X486579400Y-406567571D01*
X487222257Y-406139000D02*
X487936542Y-406139000D01*
X487079400Y-406567571D02*
X487579400Y-405067571D01*
X488079400Y-406567571D01*
X488579400Y-406424714D02*
X488650828Y-406496142D01*
X488579400Y-406567571D01*
X488507971Y-406496142D01*
X488579400Y-406424714D01*
X488579400Y-406567571D01*
X491579400Y-406567571D02*
X491579400Y-405067571D01*
X491722257Y-405996142D02*
X492150828Y-406567571D01*
X492150828Y-405567571D02*
X491579400Y-406139000D01*
X492793685Y-406567571D02*
X492793685Y-405567571D01*
X492793685Y-405067571D02*
X492722257Y-405139000D01*
X492793685Y-405210428D01*
X492865114Y-405139000D01*
X492793685Y-405067571D01*
X492793685Y-405210428D01*
X494150828Y-406496142D02*
X494007971Y-406567571D01*
X493722257Y-406567571D01*
X493579400Y-406496142D01*
X493507971Y-406424714D01*
X493436542Y-406281857D01*
X493436542Y-405853285D01*
X493507971Y-405710428D01*
X493579400Y-405639000D01*
X493722257Y-405567571D01*
X494007971Y-405567571D01*
X494150828Y-405639000D01*
X495436542Y-406567571D02*
X495436542Y-405781857D01*
X495365114Y-405639000D01*
X495222257Y-405567571D01*
X494936542Y-405567571D01*
X494793685Y-405639000D01*
X495436542Y-406496142D02*
X495293685Y-406567571D01*
X494936542Y-406567571D01*
X494793685Y-406496142D01*
X494722257Y-406353285D01*
X494722257Y-406210428D01*
X494793685Y-406067571D01*
X494936542Y-405996142D01*
X495293685Y-405996142D01*
X495436542Y-405924714D01*
X496793685Y-406567571D02*
X496793685Y-405067571D01*
X496793685Y-406496142D02*
X496650828Y-406567571D01*
X496365114Y-406567571D01*
X496222257Y-406496142D01*
X496150828Y-406424714D01*
X496079400Y-406281857D01*
X496079400Y-405853285D01*
X496150828Y-405710428D01*
X496222257Y-405639000D01*
X496365114Y-405567571D01*
X496650828Y-405567571D01*
X496793685Y-405639000D01*
X499079400Y-407139000D02*
X499007971Y-407067571D01*
X498865114Y-406853285D01*
X498793685Y-406710428D01*
X498722257Y-406496142D01*
X498650828Y-406139000D01*
X498650828Y-405853285D01*
X498722257Y-405496142D01*
X498793685Y-405281857D01*
X498865114Y-405139000D01*
X499007971Y-404924714D01*
X499079400Y-404853285D01*
X500365114Y-405067571D02*
X499650828Y-405067571D01*
X499579400Y-405781857D01*
X499650828Y-405710428D01*
X499793685Y-405639000D01*
X500150828Y-405639000D01*
X500293685Y-405710428D01*
X500365114Y-405781857D01*
X500436542Y-405924714D01*
X500436542Y-406281857D01*
X500365114Y-406424714D01*
X500293685Y-406496142D01*
X500150828Y-406567571D01*
X499793685Y-406567571D01*
X499650828Y-406496142D01*
X499579400Y-406424714D01*
X501079400Y-406424714D02*
X501150828Y-406496142D01*
X501079400Y-406567571D01*
X501007971Y-406496142D01*
X501079400Y-406424714D01*
X501079400Y-406567571D01*
X502579400Y-406567571D02*
X501722257Y-406567571D01*
X502150828Y-406567571D02*
X502150828Y-405067571D01*
X502007971Y-405281857D01*
X501865114Y-405424714D01*
X501722257Y-405496142D01*
X503222257Y-406424714D02*
X503293685Y-406496142D01*
X503222257Y-406567571D01*
X503150828Y-406496142D01*
X503222257Y-406424714D01*
X503222257Y-406567571D01*
X504579400Y-405067571D02*
X504293685Y-405067571D01*
X504150828Y-405139000D01*
X504079400Y-405210428D01*
X503936542Y-405424714D01*
X503865114Y-405710428D01*
X503865114Y-406281857D01*
X503936542Y-406424714D01*
X504007971Y-406496142D01*
X504150828Y-406567571D01*
X504436542Y-406567571D01*
X504579400Y-406496142D01*
X504650828Y-406424714D01*
X504722257Y-406281857D01*
X504722257Y-405924714D01*
X504650828Y-405781857D01*
X504579400Y-405710428D01*
X504436542Y-405639000D01*
X504150828Y-405639000D01*
X504007971Y-405710428D01*
X503936542Y-405781857D01*
X503865114Y-405924714D01*
X505222257Y-407139000D02*
X505293685Y-407067571D01*
X505436542Y-406853285D01*
X505507971Y-406710428D01*
X505579400Y-406496142D01*
X505650828Y-406139000D01*
X505650828Y-405853285D01*
X505579400Y-405496142D01*
X505507971Y-405281857D01*
X505436542Y-405139000D01*
X505293685Y-404924714D01*
X505222257Y-404853285D01*
X506365114Y-405996142D02*
X507507971Y-405996142D01*
X509007971Y-406567571D02*
X508150828Y-406567571D01*
X508579400Y-406567571D02*
X508579400Y-405067571D01*
X508436542Y-405281857D01*
X508293685Y-405424714D01*
X508150828Y-405496142D01*
D10*
D11*
X474004400Y-401489000D02*
X582004400Y-401489000D01*
D10*
D12*
X561413685Y-403767571D02*
X560913685Y-403053285D01*
X560556542Y-403767571D02*
X560556542Y-402267571D01*
X561127971Y-402267571D01*
X561270828Y-402339000D01*
X561342257Y-402410428D01*
X561413685Y-402553285D01*
X561413685Y-402767571D01*
X561342257Y-402910428D01*
X561270828Y-402981857D01*
X561127971Y-403053285D01*
X560556542Y-403053285D01*
X562627971Y-403696142D02*
X562485114Y-403767571D01*
X562199400Y-403767571D01*
X562056542Y-403696142D01*
X561985114Y-403553285D01*
X561985114Y-402981857D01*
X562056542Y-402839000D01*
X562199400Y-402767571D01*
X562485114Y-402767571D01*
X562627971Y-402839000D01*
X562699400Y-402981857D01*
X562699400Y-403124714D01*
X561985114Y-403267571D01*
X563199400Y-402767571D02*
X563556542Y-403767571D01*
X563913685Y-402767571D01*
X564485114Y-403624714D02*
X564556542Y-403696142D01*
X564485114Y-403767571D01*
X564413685Y-403696142D01*
X564485114Y-403624714D01*
X564485114Y-403767571D01*
X564485114Y-402839000D02*
X564556542Y-402910428D01*
X564485114Y-402981857D01*
X564413685Y-402910428D01*
X564485114Y-402839000D01*
X564485114Y-402981857D01*
D10*
D11*
X475365114Y-403696142D02*
X475579400Y-403767571D01*
X475936542Y-403767571D01*
X476079400Y-403696142D01*
X476150828Y-403624714D01*
X476222257Y-403481857D01*
X476222257Y-403339000D01*
X476150828Y-403196142D01*
X476079400Y-403124714D01*
X475936542Y-403053285D01*
X475650828Y-402981857D01*
X475507971Y-402910428D01*
X475436542Y-402839000D01*
X475365114Y-402696142D01*
X475365114Y-402553285D01*
X475436542Y-402410428D01*
X475507971Y-402339000D01*
X475650828Y-402267571D01*
X476007971Y-402267571D01*
X476222257Y-402339000D01*
X476865114Y-403767571D02*
X476865114Y-402767571D01*
X476865114Y-402267571D02*
X476793685Y-402339000D01*
X476865114Y-402410428D01*
X476936542Y-402339000D01*
X476865114Y-402267571D01*
X476865114Y-402410428D01*
X477436542Y-402767571D02*
X478222257Y-402767571D01*
X477436542Y-403767571D01*
X478222257Y-403767571D01*
X479365114Y-403696142D02*
X479222257Y-403767571D01*
X478936542Y-403767571D01*
X478793685Y-403696142D01*
X478722257Y-403553285D01*
X478722257Y-402981857D01*
X478793685Y-402839000D01*
X478936542Y-402767571D01*
X479222257Y-402767571D01*
X479365114Y-402839000D01*
X479436542Y-402981857D01*
X479436542Y-403124714D01*
X478722257Y-403267571D01*
X480079400Y-403624714D02*
X480150828Y-403696142D01*
X480079400Y-403767571D01*
X480007971Y-403696142D01*
X480079400Y-403624714D01*
X480079400Y-403767571D01*
X480079400Y-402839000D02*
X480150828Y-402910428D01*
X480079400Y-402981857D01*
X480007971Y-402910428D01*
X480079400Y-402839000D01*
X480079400Y-402981857D01*
X481865114Y-403339000D02*
X482579400Y-403339000D01*
X481722257Y-403767571D02*
X482222257Y-402267571D01*
X482722257Y-403767571D01*
X483150828Y-402410428D02*
X483222257Y-402339000D01*
X483365114Y-402267571D01*
X483722257Y-402267571D01*
X483865114Y-402339000D01*
X483936542Y-402410428D01*
X484007971Y-402553285D01*
X484007971Y-402696142D01*
X483936542Y-402910428D01*
X483079400Y-403767571D01*
X484007971Y-403767571D01*
D10*
D11*
X560436542Y-406567571D02*
X560436542Y-405067571D01*
X561793685Y-406567571D02*
X561793685Y-405067571D01*
X561793685Y-406496142D02*
X561650828Y-406567571D01*
X561365114Y-406567571D01*
X561222257Y-406496142D01*
X561150828Y-406424714D01*
X561079400Y-406281857D01*
X561079400Y-405853285D01*
X561150828Y-405710428D01*
X561222257Y-405639000D01*
X561365114Y-405567571D01*
X561650828Y-405567571D01*
X561793685Y-405639000D01*
X562507971Y-406424714D02*
X562579400Y-406496142D01*
X562507971Y-406567571D01*
X562436542Y-406496142D01*
X562507971Y-406424714D01*
X562507971Y-406567571D01*
X562507971Y-405639000D02*
X562579400Y-405710428D01*
X562507971Y-405781857D01*
X562436542Y-405710428D01*
X562507971Y-405639000D01*
X562507971Y-405781857D01*
X565150828Y-406567571D02*
X564293685Y-406567571D01*
X564722257Y-406567571D02*
X564722257Y-405067571D01*
X564579400Y-405281857D01*
X564436542Y-405424714D01*
X564293685Y-405496142D01*
X566865114Y-404996142D02*
X565579400Y-406924714D01*
X568150828Y-406567571D02*
X567293685Y-406567571D01*
X567722257Y-406567571D02*
X567722257Y-405067571D01*
X567579400Y-405281857D01*
X567436542Y-405424714D01*
X567293685Y-405496142D01*
D10*
D11*
X474004400Y-397489000D02*
X582004400Y-397489000D01*
D10*
D13*
X475716780Y-398193761D02*
X476859638Y-398193761D01*
X476038209Y-400193761D02*
X476288209Y-398193761D01*
X477276304Y-400193761D02*
X477442971Y-398860428D01*
X477526304Y-398193761D02*
X477419161Y-398289000D01*
X477502495Y-398384238D01*
X477609638Y-398289000D01*
X477526304Y-398193761D01*
X477502495Y-398384238D01*
X478109638Y-398860428D02*
X478871542Y-398860428D01*
X478478685Y-398193761D02*
X478264400Y-399908047D01*
X478335828Y-400098523D01*
X478514400Y-400193761D01*
X478704876Y-400193761D01*
X479657257Y-400193761D02*
X479478685Y-400098523D01*
X479407257Y-399908047D01*
X479621542Y-398193761D01*
X481192971Y-400098523D02*
X480990590Y-400193761D01*
X480609638Y-400193761D01*
X480431066Y-400098523D01*
X480359638Y-399908047D01*
X480454876Y-399146142D01*
X480573923Y-398955666D01*
X480776304Y-398860428D01*
X481157257Y-398860428D01*
X481335828Y-398955666D01*
X481407257Y-399146142D01*
X481383447Y-399336619D01*
X480407257Y-399527095D01*
X482157257Y-400003285D02*
X482240590Y-400098523D01*
X482133447Y-400193761D01*
X482050114Y-400098523D01*
X482157257Y-400003285D01*
X482133447Y-400193761D01*
X482288209Y-398955666D02*
X482371542Y-399050904D01*
X482264400Y-399146142D01*
X482181066Y-399050904D01*
X482288209Y-398955666D01*
X482264400Y-399146142D01*
D10*
D11*
X475936542Y-395581857D02*
X475436542Y-395581857D01*
X475436542Y-396367571D02*
X475436542Y-394867571D01*
X476150828Y-394867571D01*
X476722257Y-396367571D02*
X476722257Y-395367571D01*
X476722257Y-394867571D02*
X476650828Y-394939000D01*
X476722257Y-395010428D01*
X476793685Y-394939000D01*
X476722257Y-394867571D01*
X476722257Y-395010428D01*
X477650828Y-396367571D02*
X477507971Y-396296142D01*
X477436542Y-396153285D01*
X477436542Y-394867571D01*
X478793685Y-396296142D02*
X478650828Y-396367571D01*
X478365114Y-396367571D01*
X478222257Y-396296142D01*
X478150828Y-396153285D01*
X478150828Y-395581857D01*
X478222257Y-395439000D01*
X478365114Y-395367571D01*
X478650828Y-395367571D01*
X478793685Y-395439000D01*
X478865114Y-395581857D01*
X478865114Y-395724714D01*
X478150828Y-395867571D01*
X479507971Y-396224714D02*
X479579400Y-396296142D01*
X479507971Y-396367571D01*
X479436542Y-396296142D01*
X479507971Y-396224714D01*
X479507971Y-396367571D01*
X479507971Y-395439000D02*
X479579400Y-395510428D01*
X479507971Y-395581857D01*
X479436542Y-395510428D01*
X479507971Y-395439000D01*
X479507971Y-395581857D01*
X481365114Y-396367571D02*
X481365114Y-394867571D01*
X481507971Y-395796142D02*
X481936542Y-396367571D01*
X481936542Y-395367571D02*
X481365114Y-395939000D01*
X483150828Y-396296142D02*
X483007971Y-396367571D01*
X482722257Y-396367571D01*
X482579400Y-396296142D01*
X482507971Y-396153285D01*
X482507971Y-395581857D01*
X482579400Y-395439000D01*
X482722257Y-395367571D01*
X483007971Y-395367571D01*
X483150828Y-395439000D01*
X483222257Y-395581857D01*
X483222257Y-395724714D01*
X482507971Y-395867571D01*
X483722257Y-395367571D02*
X484079400Y-396367571D01*
X484436542Y-395367571D02*
X484079400Y-396367571D01*
X483936542Y-396724714D01*
X483865114Y-396796142D01*
X483722257Y-396867571D01*
X485007971Y-396367571D02*
X485007971Y-394867571D01*
X485007971Y-395439000D02*
X485150828Y-395367571D01*
X485436542Y-395367571D01*
X485579400Y-395439000D01*
X485650828Y-395510428D01*
X485722257Y-395653285D01*
X485722257Y-396081857D01*
X485650828Y-396224714D01*
X485579400Y-396296142D01*
X485436542Y-396367571D01*
X485150828Y-396367571D01*
X485007971Y-396296142D01*
X486579400Y-396367571D02*
X486436542Y-396296142D01*
X486365114Y-396224714D01*
X486293685Y-396081857D01*
X486293685Y-395653285D01*
X486365114Y-395510428D01*
X486436542Y-395439000D01*
X486579400Y-395367571D01*
X486793685Y-395367571D01*
X486936542Y-395439000D01*
X487007971Y-395510428D01*
X487079400Y-395653285D01*
X487079400Y-396081857D01*
X487007971Y-396224714D01*
X486936542Y-396296142D01*
X486793685Y-396367571D01*
X486579400Y-396367571D01*
X488365114Y-396367571D02*
X488365114Y-395581857D01*
X488293685Y-395439000D01*
X488150828Y-395367571D01*
X487865114Y-395367571D01*
X487722257Y-395439000D01*
X488365114Y-396296142D02*
X488222257Y-396367571D01*
X487865114Y-396367571D01*
X487722257Y-396296142D01*
X487650828Y-396153285D01*
X487650828Y-396010428D01*
X487722257Y-395867571D01*
X487865114Y-395796142D01*
X488222257Y-395796142D01*
X488365114Y-395724714D01*
X489079400Y-396367571D02*
X489079400Y-395367571D01*
X489079400Y-395653285D02*
X489150828Y-395510428D01*
X489222257Y-395439000D01*
X489365114Y-395367571D01*
X489507971Y-395367571D01*
X490650828Y-396367571D02*
X490650828Y-394867571D01*
X490650828Y-396296142D02*
X490507971Y-396367571D01*
X490222257Y-396367571D01*
X490079400Y-396296142D01*
X490007971Y-396224714D01*
X489936542Y-396081857D01*
X489936542Y-395653285D01*
X490007971Y-395510428D01*
X490079400Y-395439000D01*
X490222257Y-395367571D01*
X490507971Y-395367571D01*
X490650828Y-395439000D01*
X491365114Y-396224714D02*
X491436542Y-396296142D01*
X491365114Y-396367571D01*
X491293685Y-396296142D01*
X491365114Y-396224714D01*
X491365114Y-396367571D01*
X492079400Y-396367571D02*
X492079400Y-394867571D01*
X492222257Y-395796142D02*
X492650828Y-396367571D01*
X492650828Y-395367571D02*
X492079400Y-395939000D01*
X493293685Y-396367571D02*
X493293685Y-395367571D01*
X493293685Y-394867571D02*
X493222257Y-394939000D01*
X493293685Y-395010428D01*
X493365114Y-394939000D01*
X493293685Y-394867571D01*
X493293685Y-395010428D01*
X494650828Y-396296142D02*
X494507971Y-396367571D01*
X494222257Y-396367571D01*
X494079400Y-396296142D01*
X494007971Y-396224714D01*
X493936542Y-396081857D01*
X493936542Y-395653285D01*
X494007971Y-395510428D01*
X494079400Y-395439000D01*
X494222257Y-395367571D01*
X494507971Y-395367571D01*
X494650828Y-395439000D01*
X495936542Y-396367571D02*
X495936542Y-395581857D01*
X495865114Y-395439000D01*
X495722257Y-395367571D01*
X495436542Y-395367571D01*
X495293685Y-395439000D01*
X495936542Y-396296142D02*
X495793685Y-396367571D01*
X495436542Y-396367571D01*
X495293685Y-396296142D01*
X495222257Y-396153285D01*
X495222257Y-396010428D01*
X495293685Y-395867571D01*
X495436542Y-395796142D01*
X495793685Y-395796142D01*
X495936542Y-395724714D01*
X497293685Y-396367571D02*
X497293685Y-394867571D01*
X497293685Y-396296142D02*
X497150828Y-396367571D01*
X496865114Y-396367571D01*
X496722257Y-396296142D01*
X496650828Y-396224714D01*
X496579400Y-396081857D01*
X496579400Y-395653285D01*
X496650828Y-395510428D01*
X496722257Y-395439000D01*
X496865114Y-395367571D01*
X497150828Y-395367571D01*
X497293685Y-395439000D01*
X497650828Y-396510428D02*
X498793685Y-396510428D01*
X499150828Y-395367571D02*
X499150828Y-396867571D01*
X499150828Y-395439000D02*
X499293685Y-395367571D01*
X499579400Y-395367571D01*
X499722257Y-395439000D01*
X499793685Y-395510428D01*
X499865114Y-395653285D01*
X499865114Y-396081857D01*
X499793685Y-396224714D01*
X499722257Y-396296142D01*
X499579400Y-396367571D01*
X499293685Y-396367571D01*
X499150828Y-396296142D01*
X501150828Y-396296142D02*
X501007971Y-396367571D01*
X500722257Y-396367571D01*
X500579400Y-396296142D01*
X500507971Y-396224714D01*
X500436542Y-396081857D01*
X500436542Y-395653285D01*
X500507971Y-395510428D01*
X500579400Y-395439000D01*
X500722257Y-395367571D01*
X501007971Y-395367571D01*
X501150828Y-395439000D01*
X501793685Y-396367571D02*
X501793685Y-394867571D01*
X501793685Y-395439000D02*
X501936542Y-395367571D01*
X502222257Y-395367571D01*
X502365114Y-395439000D01*
X502436542Y-395510428D01*
X502507971Y-395653285D01*
X502507971Y-396081857D01*
X502436542Y-396224714D01*
X502365114Y-396296142D01*
X502222257Y-396367571D01*
X501936542Y-396367571D01*
X501793685Y-396296142D01*
D10*
D11*
X474004400Y-391489000D02*
X582004400Y-391489000D01*
D10*
D11*
X475365114Y-393596142D02*
X475579400Y-393667571D01*
X475936542Y-393667571D01*
X476079400Y-393596142D01*
X476150828Y-393524714D01*
X476222257Y-393381857D01*
X476222257Y-393239000D01*
X476150828Y-393096142D01*
X476079400Y-393024714D01*
X475936542Y-392953285D01*
X475650828Y-392881857D01*
X475507971Y-392810428D01*
X475436542Y-392739000D01*
X475365114Y-392596142D01*
X475365114Y-392453285D01*
X475436542Y-392310428D01*
X475507971Y-392239000D01*
X475650828Y-392167571D01*
X476007971Y-392167571D01*
X476222257Y-392239000D01*
X476865114Y-393667571D02*
X476865114Y-392167571D01*
X477507971Y-393667571D02*
X477507971Y-392881857D01*
X477436542Y-392739000D01*
X477293685Y-392667571D01*
X477079400Y-392667571D01*
X476936542Y-392739000D01*
X476865114Y-392810428D01*
X478793685Y-393596142D02*
X478650828Y-393667571D01*
X478365114Y-393667571D01*
X478222257Y-393596142D01*
X478150828Y-393453285D01*
X478150828Y-392881857D01*
X478222257Y-392739000D01*
X478365114Y-392667571D01*
X478650828Y-392667571D01*
X478793685Y-392739000D01*
X478865114Y-392881857D01*
X478865114Y-393024714D01*
X478150828Y-393167571D01*
X480079400Y-393596142D02*
X479936542Y-393667571D01*
X479650828Y-393667571D01*
X479507971Y-393596142D01*
X479436542Y-393453285D01*
X479436542Y-392881857D01*
X479507971Y-392739000D01*
X479650828Y-392667571D01*
X479936542Y-392667571D01*
X480079400Y-392739000D01*
X480150828Y-392881857D01*
X480150828Y-393024714D01*
X479436542Y-393167571D01*
X480579400Y-392667571D02*
X481150828Y-392667571D01*
X480793685Y-392167571D02*
X480793685Y-393453285D01*
X480865114Y-393596142D01*
X481007971Y-393667571D01*
X481150828Y-393667571D01*
X481650828Y-393524714D02*
X481722257Y-393596142D01*
X481650828Y-393667571D01*
X481579400Y-393596142D01*
X481650828Y-393524714D01*
X481650828Y-393667571D01*
X481650828Y-392739000D02*
X481722257Y-392810428D01*
X481650828Y-392881857D01*
X481579400Y-392810428D01*
X481650828Y-392739000D01*
X481650828Y-392881857D01*
D10*
D11*
X494004400Y-401489000D02*
X494004400Y-404489000D01*
D10*
D11*
X558004400Y-401489000D02*
X558004400Y-407989000D01*
X144861200Y-147457000D02*
X143861200Y-147457000D01*
X144861200Y-146457000D02*
X143861200Y-146457000D01*
X144861200Y-146457000D02*
X144861200Y-147457000D01*
X146309000Y-147457000D02*
X145309000Y-147457000D01*
X146309000Y-146457000D02*
X146309000Y-147457000D01*
X145309000Y-146457000D02*
X145309000Y-147457000D01*
X143861200Y-146457000D02*
X143861200Y-147457000D01*
X146309000Y-146457000D02*
X145309000Y-146457000D01*
X153929000Y-146457000D02*
X153929000Y-147457000D01*
X153929000Y-147457000D02*
X152929000Y-147457000D01*
X153929000Y-146457000D02*
X152929000Y-146457000D01*
X152929000Y-146457000D02*
X152929000Y-147457000D01*
X152770000Y-138590000D02*
X152770000Y-139590000D01*
X153770000Y-138590000D02*
X153770000Y-139590000D01*
X153770000Y-139590000D02*
X152770000Y-139590000D01*
X153770000Y-138590000D02*
X152770000Y-138590000D01*
X148070000Y-129830000D02*
X147070000Y-129830000D01*
X148070000Y-130830000D02*
X147070000Y-130830000D01*
X148070000Y-129830000D02*
X148070000Y-130830000D01*
X147070000Y-130830000D02*
X147070000Y-129830000D01*
X151720000Y-130830000D02*
X150720000Y-130830000D01*
X151720000Y-129830000D02*
X151720000Y-130830000D01*
X150720000Y-130830000D02*
X150720000Y-129830000D01*
X151720000Y-129830000D02*
X150720000Y-129830000D01*
X153870000Y-129830000D02*
X152870000Y-129830000D01*
X153870000Y-130830000D02*
X152870000Y-130830000D01*
X152870000Y-130830000D02*
X152870000Y-129830000D01*
X153870000Y-129830000D02*
X153870000Y-130830000D01*
X155420000Y-130830000D02*
X154420000Y-130830000D01*
X155420000Y-129830000D02*
X154420000Y-129830000D01*
X155420000Y-129830000D02*
X155420000Y-130830000D01*
X154500000Y-121920000D02*
X145500000Y-121920000D01*
X154500000Y-113430000D02*
X145500000Y-113430000D01*
X145500000Y-113430000D02*
X145500000Y-121920000D01*
X154500000Y-113430000D02*
X154500000Y-121920000D01*
X154420000Y-130830000D02*
X154420000Y-129830000D01*
X146000952Y-133201904D02*
X146000952Y-132401904D01*
X146191428Y-132401904D01*
X146305714Y-132440000D01*
X146381904Y-132516190D01*
X146420000Y-132592380D01*
X146458095Y-132744761D01*
X146458095Y-132859047D01*
X146420000Y-133011428D01*
X146381904Y-133087619D01*
X146305714Y-133163809D01*
X146191428Y-133201904D01*
X146000952Y-133201904D01*
X147067619Y-132782857D02*
X146800952Y-132782857D01*
X146800952Y-133201904D02*
X146800952Y-132401904D01*
X147181904Y-132401904D01*
X147486666Y-132401904D02*
X147486666Y-133049523D01*
X147524761Y-133125714D01*
X147562857Y-133163809D01*
X147639047Y-133201904D01*
X147791428Y-133201904D01*
X147867619Y-133163809D01*
X147905714Y-133125714D01*
X147943809Y-133049523D01*
X147943809Y-132401904D01*
X149200952Y-132782857D02*
X149315238Y-132820952D01*
X149353333Y-132859047D01*
X149391428Y-132935238D01*
X149391428Y-133049523D01*
X149353333Y-133125714D01*
X149315238Y-133163809D01*
X149239047Y-133201904D01*
X148934285Y-133201904D01*
X148934285Y-132401904D01*
X149200952Y-132401904D01*
X149277142Y-132440000D01*
X149315238Y-132478095D01*
X149353333Y-132554285D01*
X149353333Y-132630476D01*
X149315238Y-132706666D01*
X149277142Y-132744761D01*
X149200952Y-132782857D01*
X148934285Y-132782857D01*
X150077142Y-132668571D02*
X150077142Y-133201904D01*
X149734285Y-132668571D02*
X149734285Y-133087619D01*
X149772380Y-133163809D01*
X149848571Y-133201904D01*
X149962857Y-133201904D01*
X150039047Y-133163809D01*
X150077142Y-133125714D01*
X150343809Y-132668571D02*
X150648571Y-132668571D01*
X150458095Y-132401904D02*
X150458095Y-133087619D01*
X150496190Y-133163809D01*
X150572380Y-133201904D01*
X150648571Y-133201904D01*
X150800952Y-132668571D02*
X151105714Y-132668571D01*
X150915238Y-132401904D02*
X150915238Y-133087619D01*
X150953333Y-133163809D01*
X151029523Y-133201904D01*
X151105714Y-133201904D01*
X151486666Y-133201904D02*
X151410476Y-133163809D01*
X151372380Y-133125714D01*
X151334285Y-133049523D01*
X151334285Y-132820952D01*
X151372380Y-132744761D01*
X151410476Y-132706666D01*
X151486666Y-132668571D01*
X151600952Y-132668571D01*
X151677142Y-132706666D01*
X151715238Y-132744761D01*
X151753333Y-132820952D01*
X151753333Y-133049523D01*
X151715238Y-133125714D01*
X151677142Y-133163809D01*
X151600952Y-133201904D01*
X151486666Y-133201904D01*
X152096190Y-132668571D02*
X152096190Y-133201904D01*
X152096190Y-132744761D02*
X152134285Y-132706666D01*
X152210476Y-132668571D01*
X152324761Y-132668571D01*
X152400952Y-132706666D01*
X152439047Y-132782857D01*
X152439047Y-133201904D01*
X145953333Y-145992380D02*
X145953333Y-145611428D01*
X146181904Y-146068571D02*
X145381904Y-145801904D01*
X146181904Y-145535238D01*
X146181904Y-144849523D02*
X146181904Y-145306666D01*
X146181904Y-145078095D02*
X145381904Y-145078095D01*
X145496190Y-145154285D01*
X145572380Y-145230476D01*
X145610476Y-145306666D01*
X145381904Y-144582857D02*
X145381904Y-144087619D01*
X145686666Y-144354285D01*
X145686666Y-144240000D01*
X145724761Y-144163809D01*
X145762857Y-144125714D01*
X145839047Y-144087619D01*
X146029523Y-144087619D01*
X146105714Y-144125714D01*
X146143809Y-144163809D01*
X146181904Y-144240000D01*
X146181904Y-144468571D01*
X146143809Y-144544761D01*
X146105714Y-144582857D01*
X144453333Y-145992380D02*
X144453333Y-145611428D01*
X144681904Y-146068571D02*
X143881904Y-145801904D01*
X144681904Y-145535238D01*
X144681904Y-144849523D02*
X144681904Y-145306666D01*
X144681904Y-145078095D02*
X143881904Y-145078095D01*
X143996190Y-145154285D01*
X144072380Y-145230476D01*
X144110476Y-145306666D01*
X144148571Y-144163809D02*
X144681904Y-144163809D01*
X143843809Y-144354285D02*
X144415238Y-144544761D01*
X144415238Y-144049523D01*
X153681904Y-145601904D02*
X153300952Y-145868571D01*
X153681904Y-146059047D02*
X152881904Y-146059047D01*
X152881904Y-145754285D01*
X152920000Y-145678095D01*
X152958095Y-145640000D01*
X153034285Y-145601904D01*
X153148571Y-145601904D01*
X153224761Y-145640000D01*
X153262857Y-145678095D01*
X153300952Y-145754285D01*
X153300952Y-146059047D01*
X153262857Y-145259047D02*
X153262857Y-144992380D01*
X153681904Y-144878095D02*
X153681904Y-145259047D01*
X152881904Y-145259047D01*
X152881904Y-144878095D01*
X153643809Y-144573333D02*
X153681904Y-144459047D01*
X153681904Y-144268571D01*
X153643809Y-144192380D01*
X153605714Y-144154285D01*
X153529523Y-144116190D01*
X153453333Y-144116190D01*
X153377142Y-144154285D01*
X153339047Y-144192380D01*
X153300952Y-144268571D01*
X153262857Y-144420952D01*
X153224761Y-144497142D01*
X153186666Y-144535238D01*
X153110476Y-144573333D01*
X153034285Y-144573333D01*
X152958095Y-144535238D01*
X152920000Y-144497142D01*
X152881904Y-144420952D01*
X152881904Y-144230476D01*
X152920000Y-144116190D01*
X153262857Y-143773333D02*
X153262857Y-143506666D01*
X153681904Y-143392380D02*
X153681904Y-143773333D01*
X152881904Y-143773333D01*
X152881904Y-143392380D01*
X152881904Y-143163809D02*
X152881904Y-142706666D01*
X153681904Y-142935238D02*
X152881904Y-142935238D01*
X151253333Y-129401904D02*
X151253333Y-129020952D01*
X151481904Y-129478095D02*
X150681904Y-129211428D01*
X151481904Y-128944761D01*
X150681904Y-128754285D02*
X150681904Y-128259047D01*
X150986666Y-128525714D01*
X150986666Y-128411428D01*
X151024761Y-128335238D01*
X151062857Y-128297142D01*
X151139047Y-128259047D01*
X151329523Y-128259047D01*
X151405714Y-128297142D01*
X151443809Y-128335238D01*
X151481904Y-128411428D01*
X151481904Y-128640000D01*
X151443809Y-128716190D01*
X151405714Y-128754285D01*
X151786666Y-127687619D02*
X151748571Y-127725714D01*
X151634285Y-127801904D01*
X151558095Y-127840000D01*
X151443809Y-127878095D01*
X151253333Y-127916190D01*
X151100952Y-127916190D01*
X150910476Y-127878095D01*
X150796190Y-127840000D01*
X150720000Y-127801904D01*
X150605714Y-127725714D01*
X150567619Y-127687619D01*
X150681904Y-127459047D02*
X150681904Y-126963809D01*
X150986666Y-127230476D01*
X150986666Y-127116190D01*
X151024761Y-127040000D01*
X151062857Y-127001904D01*
X151139047Y-126963809D01*
X151329523Y-126963809D01*
X151405714Y-127001904D01*
X151443809Y-127040000D01*
X151481904Y-127116190D01*
X151481904Y-127344761D01*
X151443809Y-127420952D01*
X151405714Y-127459047D01*
X151405714Y-126620952D02*
X151443809Y-126582857D01*
X151481904Y-126620952D01*
X151443809Y-126659047D01*
X151405714Y-126620952D01*
X151481904Y-126620952D01*
X150681904Y-126316190D02*
X150681904Y-125820952D01*
X150986666Y-126087619D01*
X150986666Y-125973333D01*
X151024761Y-125897142D01*
X151062857Y-125859047D01*
X151139047Y-125820952D01*
X151329523Y-125820952D01*
X151405714Y-125859047D01*
X151443809Y-125897142D01*
X151481904Y-125973333D01*
X151481904Y-126201904D01*
X151443809Y-126278095D01*
X151405714Y-126316190D01*
X150948571Y-125554285D02*
X151481904Y-125363809D01*
X150948571Y-125173333D01*
X151786666Y-124944761D02*
X151748571Y-124906666D01*
X151634285Y-124830476D01*
X151558095Y-124792380D01*
X151443809Y-124754285D01*
X151253333Y-124716190D01*
X151100952Y-124716190D01*
X150910476Y-124754285D01*
X150796190Y-124792380D01*
X150720000Y-124830476D01*
X150605714Y-124906666D01*
X150567619Y-124944761D01*
X153605714Y-129054285D02*
X153643809Y-129092380D01*
X153681904Y-129206666D01*
X153681904Y-129282857D01*
X153643809Y-129397142D01*
X153567619Y-129473333D01*
X153491428Y-129511428D01*
X153339047Y-129549523D01*
X153224761Y-129549523D01*
X153072380Y-129511428D01*
X152996190Y-129473333D01*
X152920000Y-129397142D01*
X152881904Y-129282857D01*
X152881904Y-129206666D01*
X152920000Y-129092380D01*
X152958095Y-129054285D01*
X153681904Y-128292380D02*
X153681904Y-128749523D01*
X153681904Y-128520952D02*
X152881904Y-128520952D01*
X152996190Y-128597142D01*
X153072380Y-128673333D01*
X153110476Y-128749523D01*
X152881904Y-127568571D02*
X152881904Y-127949523D01*
X153262857Y-127987619D01*
X153224761Y-127949523D01*
X153186666Y-127873333D01*
X153186666Y-127682857D01*
X153224761Y-127606666D01*
X153262857Y-127568571D01*
X153339047Y-127530476D01*
X153529523Y-127530476D01*
X153605714Y-127568571D01*
X153643809Y-127606666D01*
X153681904Y-127682857D01*
X153681904Y-127873333D01*
X153643809Y-127949523D01*
X153605714Y-127987619D01*
X155105714Y-129054285D02*
X155143809Y-129092380D01*
X155181904Y-129206666D01*
X155181904Y-129282857D01*
X155143809Y-129397142D01*
X155067619Y-129473333D01*
X154991428Y-129511428D01*
X154839047Y-129549523D01*
X154724761Y-129549523D01*
X154572380Y-129511428D01*
X154496190Y-129473333D01*
X154420000Y-129397142D01*
X154381904Y-129282857D01*
X154381904Y-129206666D01*
X154420000Y-129092380D01*
X154458095Y-129054285D01*
X155181904Y-128292380D02*
X155181904Y-128749523D01*
X155181904Y-128520952D02*
X154381904Y-128520952D01*
X154496190Y-128597142D01*
X154572380Y-128673333D01*
X154610476Y-128749523D01*
X154648571Y-127606666D02*
X155181904Y-127606666D01*
X154343809Y-127797142D02*
X154915238Y-127987619D01*
X154915238Y-127492380D01*
X147900952Y-139425714D02*
X147862857Y-139463809D01*
X147748571Y-139501904D01*
X147672380Y-139501904D01*
X147558095Y-139463809D01*
X147481904Y-139387619D01*
X147443809Y-139311428D01*
X147405714Y-139159047D01*
X147405714Y-139044761D01*
X147443809Y-138892380D01*
X147481904Y-138816190D01*
X147558095Y-138740000D01*
X147672380Y-138701904D01*
X147748571Y-138701904D01*
X147862857Y-138740000D01*
X147900952Y-138778095D01*
X148662857Y-139501904D02*
X148205714Y-139501904D01*
X148434285Y-139501904D02*
X148434285Y-138701904D01*
X148358095Y-138816190D01*
X148281904Y-138892380D01*
X148205714Y-138930476D01*
X148929523Y-138701904D02*
X149424761Y-138701904D01*
X149158095Y-139006666D01*
X149272380Y-139006666D01*
X149348571Y-139044761D01*
X149386666Y-139082857D01*
X149424761Y-139159047D01*
X149424761Y-139349523D01*
X149386666Y-139425714D01*
X149348571Y-139463809D01*
X149272380Y-139501904D01*
X149043809Y-139501904D01*
X148967619Y-139463809D01*
X148929523Y-139425714D01*
X150339047Y-138663809D02*
X149653333Y-139692380D01*
X150986666Y-139501904D02*
X150605714Y-139501904D01*
X150605714Y-138701904D01*
X151253333Y-139082857D02*
X151520000Y-139082857D01*
X151634285Y-139501904D02*
X151253333Y-139501904D01*
X151253333Y-138701904D01*
X151634285Y-138701904D01*
X151977142Y-139501904D02*
X151977142Y-138701904D01*
X152167619Y-138701904D01*
X152281904Y-138740000D01*
X152358095Y-138816190D01*
X152396190Y-138892380D01*
X152434285Y-139044761D01*
X152434285Y-139159047D01*
X152396190Y-139311428D01*
X152358095Y-139387619D01*
X152281904Y-139463809D01*
X152167619Y-139501904D01*
X151977142Y-139501904D01*
X147462857Y-129206666D02*
X147500952Y-129092380D01*
X147539047Y-129054285D01*
X147615238Y-129016190D01*
X147729523Y-129016190D01*
X147805714Y-129054285D01*
X147843809Y-129092380D01*
X147881904Y-129168571D01*
X147881904Y-129473333D01*
X147081904Y-129473333D01*
X147081904Y-129206666D01*
X147120000Y-129130476D01*
X147158095Y-129092380D01*
X147234285Y-129054285D01*
X147310476Y-129054285D01*
X147386666Y-129092380D01*
X147424761Y-129130476D01*
X147462857Y-129206666D01*
X147462857Y-129473333D01*
X147081904Y-128520952D02*
X147081904Y-128368571D01*
X147120000Y-128292380D01*
X147196190Y-128216190D01*
X147348571Y-128178095D01*
X147615238Y-128178095D01*
X147767619Y-128216190D01*
X147843809Y-128292380D01*
X147881904Y-128368571D01*
X147881904Y-128520952D01*
X147843809Y-128597142D01*
X147767619Y-128673333D01*
X147615238Y-128711428D01*
X147348571Y-128711428D01*
X147196190Y-128673333D01*
X147120000Y-128597142D01*
X147081904Y-128520952D01*
X147081904Y-127682857D02*
X147081904Y-127530476D01*
X147120000Y-127454285D01*
X147196190Y-127378095D01*
X147348571Y-127340000D01*
X147615238Y-127340000D01*
X147767619Y-127378095D01*
X147843809Y-127454285D01*
X147881904Y-127530476D01*
X147881904Y-127682857D01*
X147843809Y-127759047D01*
X147767619Y-127835238D01*
X147615238Y-127873333D01*
X147348571Y-127873333D01*
X147196190Y-127835238D01*
X147120000Y-127759047D01*
X147081904Y-127682857D01*
X147081904Y-127111428D02*
X147081904Y-126654285D01*
X147881904Y-126882857D02*
X147081904Y-126882857D01*
X147081904Y-126235238D02*
X147081904Y-126159047D01*
X147120000Y-126082857D01*
X147158095Y-126044761D01*
X147234285Y-126006666D01*
X147386666Y-125968571D01*
X147577142Y-125968571D01*
X147729523Y-126006666D01*
X147805714Y-126044761D01*
X147843809Y-126082857D01*
X147881904Y-126159047D01*
X147881904Y-126235238D01*
X147843809Y-126311428D01*
X147805714Y-126349523D01*
X147729523Y-126387619D01*
X147577142Y-126425714D01*
X147386666Y-126425714D01*
X147234285Y-126387619D01*
X147158095Y-126349523D01*
X147120000Y-126311428D01*
X147081904Y-126235238D01*
M02*
